<?xml version="1.0" standalone="no"?>
<!DOCTYPE svg PUBLIC "-//W3C//DTD SVG 20010904//EN"
 "http://www.w3.org/TR/2001/REC-SVG-20010904/DTD/svg10.dtd">
<svg version="1.0" xmlns="http://www.w3.org/2000/svg"
 width="190.000000pt" height="190.000000pt" viewBox="0 0 190.000000 190.000000"
 preserveAspectRatio="xMidYMid meet">
<metadata>
Created by potrace 1.14, written by Peter Selinger 2001-2017
</metadata>
<g transform="translate(0.000000,190.000000) scale(0.100000,-0.100000)"
fill="#000000" stroke="none">
<path d="M836 1603 c-1 -1 -110 -3 -242 -3 -132 -1 -244 -4 -250 -8 -13 -10
-16 -1274 -3 -1283 6 -3 137 -7 292 -8 155 -1 356 -3 447 -5 167 -2 252 8 308
38 36 19 94 74 119 111 69 101 72 269 8 349 l-23 29 -94 -70 c-174 -131 -285
-176 -428 -176 -187 0 -364 118 -411 275 -19 62 -21 73 -20 134 0 107 43 198
128 274 72 64 192 113 259 104 10 -1 44 -5 76 -8 54 -5 144 -40 180 -69 27
-22 47 -67 43 -98 -9 -72 -84 -133 -271 -223 -72 -36 -135 -69 -138 -74 -3 -6
15 -21 41 -34 40 -19 63 -23 138 -23 167 1 338 69 451 180 87 85 118 153 118
255 0 63 -5 85 -32 140 -56 117 -129 168 -267 186 -53 6 -423 13 -429 7z"/>
</g>
</svg>
