<?xml version="1.0" encoding="utf-8"?>
<!-- Generator: Adobe Illustrator 16.0.0, SVG Export Plug-In . SVG Version: 6.00 Build 0)  -->
<!DOCTYPE svg PUBLIC "-//W3C//DTD SVG 1.1//EN" "http://www.w3.org/Graphics/SVG/1.1/DTD/svg11.dtd">
<svg version="1.1" id="Layer_1" xmlns="http://www.w3.org/2000/svg" xmlns:xlink="http://www.w3.org/1999/xlink" x="0px" y="0px"
	 width="822.842px" height="580.811px" viewBox="0 0 822.842 580.811" enable-background="new 0 0 822.842 580.811"
	 xml:space="preserve">
<path fill="#F2F2F2" d="M623.476,289.042c0.009,14.554-1.687,29.059-5.05,43.219c-19.49,81.881-93.11,142.78-180.95,142.78
	c-102.72,0-186-83.28-186-186c-0.019-69.048,38.218-132.423,99.31-164.6c0.01,0,0.02-0.01,0.03-0.01
	c5.04-2.67,10.22-5.104,15.54-7.3c29.425-12.118,61.455-16.527,93.061-12.81c2.71,0.32,5.41,0.7,8.08,1.13
	c4.35,0.71,8.643,1.566,12.88,2.57c1.069,0.24,2.13,0.5,3.18,0.78c0.21,0.05,0.41,0.11,0.62,0.16s0.41,0.1,0.61,0.16h0.01
	c0.399,0.1,0.8,0.2,1.2,0.31c0.979,0.27,1.96,0.54,2.939,0.83c3.03,0.86,6.027,1.804,8.99,2.83c0.47,0.16,0.93,0.32,1.4,0.48
	c0.239,0.09,0.47,0.17,0.71,0.26c0.25,0.08,0.489,0.17,0.739,0.26c6.655,2.406,13.166,5.194,19.5,8.35l-9.75-3.14
	c31.19,15.99,58.19,44.22,80.721,84.33c0.458-2.726,3.04-4.564,5.767-4.106c1.405,0.236,2.643,1.061,3.403,2.266
	c0.134,0.213,0.251,0.438,0.35,0.67c1.1,2.533-0.062,5.478-2.594,6.578c-0.002,0-0.004,0.001-0.006,0.002
	c-0.035,0.018-0.072,0.031-0.11,0.04l16.021,41.65c1.146-0.04,2.286,0.175,3.34,0.63c0.263-1.389,0.724-2.733,1.37-3.99
	c0.319,1.38,0.62,2.77,0.909,4.17c0.101,0.52,0.211,1.03,0.301,1.55v0.01c0.55,2.75,1.029,5.526,1.439,8.33
	c0.04,0.23,0.07,0.45,0.11,0.68v0.01c0.16,1.1,0.31,2.21,0.45,3.32c0.739,5.87,1.203,11.823,1.39,17.86
	C623.445,285.212,623.476,287.123,623.476,289.042z"/>
<path fill="#CCCCCC" d="M614.189,259.713c1.622,41.519,3.246,83.105,1.373,124.645c-1.859,41.252-7.729,82.209-12.87,123.144
	l-8.737,69.56h3c0.01-6.879-6.55-12.934-13.471-11.869c-6.617,1.018-11.091,8.09-9.632,14.504l2.741-1.155
	c-4.559-9.196-11.579-21.084-23.677-19.643c-5.686,0.677-9.349,4.965-13.498,8.423c-9.103,7.332-21.495,9.076-32.268,4.542
	c-1.753-0.761-3.282,1.822-1.515,2.591c9.475,4.078,20.263,3.785,29.502-0.801c2.291-1.149,4.439-2.563,6.401-4.211
	c2.078-1.731,3.946-3.734,6.166-5.293c4.828-3.39,10.497-2.736,15.246,0.489c5.329,3.619,8.277,9.82,11.052,15.416
	c0.782,1.578,3.104,0.441,2.741-1.155c-0.943-4.922,2.218-9.695,7.117-10.746c5.163-0.875,10.1,3.843,10.093,8.908
	c-0.003,1.985,2.767,1.859,3,0c5.184-41.272,10.56-82.527,15.506-123.829c2.438-20.363,4.576-40.771,5.718-61.252
	c1.157-20.743,1.386-41.529,1.125-62.3c-0.293-23.333-1.203-46.651-2.114-69.967C617.114,257.789,614.114,257.779,614.189,259.713
	L614.189,259.713z"/>
<path fill="#FFB6B6" d="M754.376,299.272c-17.636,12.815-36.018,24.569-55.05,35.2c-5.2,2.859-10.301,5.489-15.101,7.72
	c-7.439,3.46-14.17,5.97-19.43,6.899l-0.01,0.011c-0.771,0.14-1.521,0.239-2.23,0.31c-6.53,0.63-11.88-3.29-16.24-9.729
	c-6.08-8.96-10.25-22.801-13.06-36.08c-0.561-2.62-1.061-5.21-1.51-7.74c-2.101-11.69-3.15-22.03-3.58-26.91
	c-1.982-0.572-3.826-1.542-5.42-2.85v-0.01c-0.262-0.203-0.513-0.42-0.75-0.65c-0.545-0.508-1.05-1.056-1.511-1.64
	c-2.176-2.699-3.358-6.063-3.35-9.53c0-2.398,0.564-4.762,1.65-6.9v-0.01c3.811-7.538,13.011-10.558,20.548-6.747
	s10.558,13.011,6.746,20.548c-0.301,0.594-0.64,1.168-1.015,1.718l5.391,13.16l0.01,0.01l15.979,38.98v0.01l0.171,0.41l59.029-35.29
	l8.24-4.93l1.59-0.95c6.57-5.063,15.947-4.129,21.391,2.13h0.01c5.669,6.573,4.937,16.497-1.637,22.167
	C754.96,298.82,754.672,299.052,754.376,299.272L754.376,299.272z"/>
<path fill="#CCCCCC" d="M617.355,260.732l-1.87,0.7c-1.29-3.46-2.604-6.863-3.939-10.21c-27.74-69.49-64.86-114.55-110.53-134.19
	c-0.689-0.3-1.38-0.59-2.08-0.87c-0.93-0.39-1.87-0.77-2.81-1.12c-1.521-0.6-3.061-1.16-4.601-1.69
	c-2.06-0.71-4.123-1.367-6.189-1.971c-0.5-0.149-1.01-0.3-1.51-0.43c-1.79-0.51-3.57-0.98-5.36-1.39
	c-42.73-10.23-86.49,0.43-127.65,14.87c-0.01,0-0.02,0.01-0.03,0.01c-12.57,4.41-24.91,9.18-36.89,13.81
	c-44.3,17.12-83.25,32.17-110.4,19.16c-1.04-0.49-2.06-1.03-3.06-1.61c-1.08-0.63-2.15-1.31-3.19-2.029
	c-0.13-0.09-0.26-0.181-0.38-0.28c-1.12-0.8-2.22-1.66-3.29-2.58c-1.59-1.369-3.083-2.845-4.47-4.42c-0.27-0.3-0.54-0.6-0.8-0.91
	c-0.05-0.07-0.11-0.14-0.16-0.2c-2.049-2.474-3.845-5.147-5.36-7.98c-9.38-17.4-8.94-40.4-8.51-62.8
	c0.46-24.24,0.91-47.29-11.35-60.7c-1.755-1.934-3.751-3.635-5.94-5.06c-2.184-1.432-4.53-2.6-6.99-3.48
	c-26.37-9.56-71.71,9.25-135.04,56.05c-2.1,1.55-4.21,3.13-6.35,4.74l-1.21-1.6c2.14-1.61,4.26-3.2,6.36-4.75
	c29.95-22.12,56.12-38.16,77.9-47.75c24.9-10.97,44.77-13.81,59.23-8.49c2.53,0.92,4.946,2.128,7.2,3.6
	c2.254,1.473,4.322,3.212,6.16,5.18c12.96,13.92,12.5,37.5,12.03,62.29c-0.4,21.07-0.82,42.68,7.05,59.37
	c1.743,3.744,3.968,7.244,6.62,10.41c0.16,0.19,0.33,0.38,0.49,0.57c1.379,1.575,2.867,3.051,4.45,4.42
	c0.93,0.81,1.89,1.56,2.87,2.27c1.142,0.833,2.327,1.604,3.55,2.31c1.371,0.801,2.786,1.522,4.24,2.16
	c26.39,11.64,64.44-3.07,107.63-19.76c17.12-6.62,34.94-13.5,53.18-19.25c30.311-9.56,61.78-15.99,93.061-12.81
	c2.5,0.24,5.01,0.56,7.51,0.95c4.51,0.68,9.01,1.57,13.5,2.7c1.05,0.26,2.09,0.54,3.13,0.83c0.41,0.1,0.811,0.22,1.22,0.34
	c0.4,0.11,0.811,0.22,1.21,0.34c2.061,0.61,4.131,1.27,6.19,1.98c1.75,0.61,3.5,1.25,5.23,1.92c0.63,0.25,1.27,0.5,1.909,0.77
	c0.57,0.23,1.15,0.47,1.721,0.71c3.199,1.36,6.37,2.83,9.489,4.44c31.19,15.99,58.19,44.22,80.721,84.33c1,1.78,2,3.59,2.979,5.43
	c2.311,4.29,4.567,8.71,6.771,13.26c4.37,8.98,8.54,18.46,12.51,28.44c0.91,2.26,1.803,4.55,2.68,6.87
	C616.576,258.663,616.966,259.692,617.355,260.732z"/>
<circle fill="#3DB8B6" cx="8.002" cy="65.351" r="8"/>
<circle fill="#3DB8B6" cx="157.535" cy="8.002" r="8"/>
<rect x="194.827" y="96.965" transform="matrix(-0.6776 0.7354 -0.7354 -0.6776 441.6453 114.0331)" fill="#3F3D56" width="2" height="113.719"/>
<circle fill="#3DB8B6" cx="154.006" cy="115.299" r="5"/>
<path fill="#E6E6E6" d="M236.426,58.663l-13.48,10.26l-18.45,14.05c-9.565,7.252-15.946,17.93-17.8,29.79l-3.37,21.24l-0.54,3.4
	l-0.42,2.66l-0.37,2.38l-1.11,6.97c-0.206,1.25,0.641,2.43,1.891,2.636c0.752,0.124,1.517-0.134,2.041-0.688
	c-0.21-4.308,3.044-8.001,7.344-8.335c0.525-15.642,9.013-22.634,21.875-24.873l0.13-0.15l-0.09,0.18
	c2.057,17.201-3.125,26.098-13.92,28.56l-0.27,0.554c0.087,0.167,0.176,0.333,0.252,0.509c1.765,4.042-0.082,8.75-4.125,10.515
	c-0.476,0.208-0.971,0.369-1.479,0.48c-0.005,0.209,0.019,0.418,0.07,0.622c0.342,1.233,1.618,1.957,2.852,1.615
	c0.207-0.057,0.405-0.143,0.588-0.254l2.31-1.43l1.77-1.09l1.37-0.85l2.05-1.27l24.47-15.13c10.025-6.179,17.247-16.022,20.13-27.44
	l5.8-22.81l4.18-16.42L236.426,58.663z"/>
<circle fill="#3DB8B6" cx="236.329" cy="191.83" r="5"/>
<path fill="#CCCCCC" d="M667.596,330.433l-1.15-15.391v-0.01l-0.579-7.73c-0.873-11.969-6.35-23.134-15.28-31.149l-0.12-0.1
	l-0.01-0.01l-27.44-24.73c-0.755-0.704-1.891-0.807-2.76-0.25c-0.213,0.127-0.402,0.289-0.561,0.48
	c-0.188,0.224-0.329,0.484-0.415,0.764c3.548,2.304,4.681,6.976,2.584,10.65l0.882,3.136v0.01
	c9.154,6.836,11.387,17.131,8.41,30.029l0.06,0.201l-0.1-0.17c-11.761-6.995-18.794-16.208-17.6-29.28
	c-4.343-0.767-7.242-4.91-6.475-9.253c0.017-0.093,0.034-0.187,0.055-0.279c-0.211-0.066-0.431-0.099-0.651-0.099
	c-0.202-0.003-0.404,0.024-0.6,0.08c-0.998,0.249-1.701,1.141-1.71,2.17l-0.84,37.581c-0.288,11.771,4.028,23.19,12.03,31.829
	l3.1,3.35l12.87,13.94l11.49,12.45l22-9.55l0.01-0.011l4.06-1.76L667.596,330.433z"/>
<circle fill="#3DB8B6" cx="192.712" cy="150.47" r="5.763"/>
<circle fill="#3F3D56" cx="215.85" cy="114.593" r="4"/>
<polygon fill="#3F3D56" points="616.666,257.452 616.186,257.632 614.796,258.172 612.056,251.052 601.016,222.362 600.996,222.322 
	596.056,209.462 596.046,209.462 594.466,205.342 596.336,204.622 598.056,209.082 614.076,250.732 "/>
<path fill="#3DB8B6" d="M598.166,209.042c-0.035,0.018-0.072,0.031-0.11,0.04c-0.634,0.261-1.314,0.391-2,0.38h-0.01
	c-0.626-0.021-1.243-0.157-1.82-0.4c-1.178-0.501-2.119-1.436-2.63-2.61c-0.391-0.886-0.512-1.866-0.35-2.82
	c0.458-2.727,3.04-4.564,5.767-4.106c1.405,0.236,2.643,1.061,3.403,2.266c0.134,0.213,0.251,0.438,0.35,0.67
	c1.1,2.533-0.062,5.478-2.594,6.577C598.17,209.041,598.168,209.042,598.166,209.042z"/>
<path fill="#3DB8B6" d="M620.927,261.253c-0.008,0.03-0.021,0.059-0.039,0.084v0.008c-0.214,0.466-0.488,0.901-0.817,1.295
	c-0.618,0.756-1.408,1.354-2.305,1.743c-0.994,0.433-2.084,0.598-3.161,0.478v-0.008c-2.188-0.25-4.075-1.649-4.95-3.67
	c-0.498-1.128-0.641-2.382-0.409-3.593c0.373-2.012,1.724-3.706,3.602-4.518c0.107-0.046,0.224-0.092,0.331-0.131
	c0.132-0.046,0.263-0.093,0.394-0.131c0.365-0.107,0.739-0.182,1.118-0.224c0.146-0.015,0.293-0.023,0.439-0.023
	c0.884-0.031,1.763,0.135,2.575,0.486c0.501,0.21,0.973,0.485,1.402,0.817v0.008c0.208,0.154,0.404,0.325,0.587,0.508v0.008
	c0.534,0.545,0.966,1.182,1.271,1.881C621.659,257.863,621.646,259.673,620.927,261.253z"/>
<circle fill="#3F3D56" cx="633.161" cy="299.6" r="4"/>
<polygon fill="#3F3D56" points="552.916,130.852 552.306,132.752 547.216,131.112 520.276,122.442 510.526,119.302 501.036,116.252 
	499.086,115.622 496.336,114.732 485.396,111.212 483.906,110.742 478.976,109.152 467.496,105.452 466.926,105.272 378.945,76.952 
	373.566,75.222 374.176,73.322 379.266,74.962 480.826,107.652 484.896,108.962 486.036,109.322 488.936,110.262 497.846,113.122 
	499.326,113.602 500.746,114.062 547.536,129.122 "/>
<path fill="#CCCCCC" d="M501.036,114.862c-0.038-0.271-0.127-0.532-0.261-0.77l-0.029-0.03c-0.281-0.484-0.735-0.845-1.271-1.01
	c-0.058-0.023-0.118-0.036-0.18-0.04h-0.003c0.402,4.389-2.83,8.273-7.219,8.675c-0.154,0.015-0.31,0.024-0.465,0.029l-0.004,0.006
	c0.534,14.78-4.298,25.598-19.46,28.79l-0.12,0.17l0.061-0.19c-8.309-14.153,0.342-24.53,11.627-34.32
	c-1.009-3.151,0.025-6.598,2.604-8.672l-0.001-0.008c-0.128-0.563-0.464-1.055-0.939-1.38c-0.833-0.604-1.969-0.566-2.76,0.09
	l-1.79,1.45l-0.4,0.32l-0.05,0.05l-1.4,1.13l-0.51,0.41l-25.07,20.3c-9.162,7.392-15.081,18.064-16.5,29.75l-2.87,23.37
	l-2.069,16.82l25.489,12.56l12.08-11.89l16.521-16.27c8.574-8.402,13.557-19.801,13.899-31.8l1.07-35.37l0.021-0.78l0.029-0.94
	C501.066,115.162,501.057,115.011,501.036,114.862z"/>
<circle fill="#3DB8B6" cx="374.27" cy="75.188" r="5"/>
<circle fill="#3DB8B6" cx="552.211" cy="130.883" r="5"/>
<circle fill="#3F3D56" cx="470.787" cy="154.273" r="4"/>
<path fill="#2F2E41" d="M808.386,174.563c-0.45-0.5-0.9-0.98-1.36-1.46c-11.31-11.89-26.09-18.94-39.89-18.94
	c-2.56,0-5.01,0.116-7.35,0.35c-9.69,0.95-17.44,3.87-23.25,8.76c-8.58,7.22-12.88,18.684-12.9,34.39c0,0.87-0.05,2.49-0.13,4.64
	c-0.51,12.53-2.37,43.06-4.04,47.58c-2.71,7.36-5.06,13.72-1.56,18.53c2.039,2.81,6.05,4.85,12.31,6.17
	c1.15,0.25,2.37,0.47,3.67,0.65c6.719,0.89,13.493,1.292,20.271,1.2c0.89,0,1.779,0,2.71-0.02h0.01c3.21-0.02,6.64-0.11,10.28-0.25
	c8.51-0.33,19.18-1,28.76-3.21h0.01c1.25-0.28,2.48-0.6,3.68-0.94l0.221-0.06l0.1-0.2c1.714-3.487,2.69-7.289,2.87-11.17
	c1.832,2.472,3.183,5.268,3.979,8.24l0.15,0.57l0.54-0.25c4.228-1.819,7.894-4.732,10.62-8.44c2.607-3.867,4.172-8.341,4.54-12.99
	C823.996,235.092,818.806,186.183,808.386,174.563z"/>
<path fill="#2F2E41" d="M811.754,580.659h-59.931l-10.05-49.689l-3.26,49.689h-55.67c-0.029-36.827-11.285-77.843,5.571-111.671
	c0.877-1.76,12.481-4.141,0.519-5.159l0.689-2.35l1.091-3.76l0.689-2.36c0,0,2.696-2.254,0.879-3.019
	c-1.816-0.765,0.926-3.179,0.926-3.179l9.716-33.362l0.91-3.141h69.369c3.992,3.75,7.674,7.816,11.011,12.16
	c1.13,1.44,2.31,3,3.52,4.68c0.84,1.19,1.71,2.44,2.58,3.75c7.729,11.508,13.507,24.212,17.1,37.601v0.01
	c0.61,2.29,1.15,4.633,1.62,7.03v0.01c0.42,2.13,0.79,4.29,1.08,6.5c0.22,1.61,0.41,3.24,0.55,4.89
	c0.834,9.142,0.542,18.351-0.869,27.42L811.754,580.659z"/>
<path fill="#3DB8B6" d="M744.035,249.47l33.016-1.701L792.386,272c0,0,28.854,4.824,26.854,38.824s-35.105,63.835-35.105,63.835
	l25.415,73.706l-2.458,7.022l0.315,3.943l3.353,4.176l0.346,4.319l-2.971,6.833l4.039,6.543
	c-29.083,7.26-48.709-0.128-59.124-21.781c-11.938-29.795-32.044-32.636-56.583-20.845l3.668-32.917l4.53-6.075l-2.53-7.925
	l3.805-7.622l1.983-24.211c0,0-21.704-32.607,3.212-57.167l10-17l11.188-13.651L744.035,249.47z"/>
<circle fill="#FFB6B6" cx="760.448" cy="207.644" r="34.984"/>
<path fill="#2F2E41" d="M783.436,164.163h-34.25c-4.143-0.964-8.412-1.265-12.649-0.89c-5.207,0.397-10.182,2.32-14.301,5.53
	c-6.13,4.92-9.51,12.76-9.51,22.08c0.017,2.979,0.325,5.95,0.92,8.87l0.061,0.31l0.3,0.08c3.16,0.81,6.326,1.53,9.5,2.159
	c0.76,0.15,1.53,0.301,2.3,0.44c4.16,0.77,8.32,1.38,12.45,1.82l0.229,0.029l0.171-0.149c2.951-2.714,5.292-6.024,6.869-9.71
	c0.929,3.238,1.177,6.632,0.73,9.97l-0.07,0.54l0.54,0.03c3.01,0.17,6.023,0.253,9.04,0.25c13.141-0.009,26.231-1.604,38.99-4.75
	c0.84-0.2,1.67-0.41,2.5-0.63l0.38-0.1v-21.68C797.627,170.523,791.274,164.171,783.436,164.163z"/>
<path fill="#2F2E41" d="M811.336,161.197c-1.453,14.28-14.207,24.679-28.487,23.227s-24.679-14.206-23.227-28.487
	c1.452-14.28,14.206-24.679,28.486-23.227c11.333,1.153,20.595,9.551,22.847,20.717c-3.968,0.559-7.739,2.076-10.989,4.42
	c4.008-0.495,8.045,0.656,11.189,3.19C811.216,161.087,811.275,161.137,811.336,161.197z"/>
<path fill="#3F3D56" d="M263.998,94.522c-2.151-0.001-4.254-0.638-6.045-1.831c-19.193-1.529-31.763-9.744-37.527-24.833
	c-2.533-1.683-4.26-4.335-4.774-7.332c-0.521-3.004,0.239-6.09,2.095-8.509c3.652-4.622,10.257-5.629,15.121-2.308l2.024,1.34
	c0.006-2.132,0.639-4.216,1.821-5.99l0.144-0.212c1.42-2.133,4.067-3.09,6.523-2.358c2.623,0.726,4.482,3.056,4.607,5.774
	c0.03,0.511,0.093,1.02,0.188,1.523c1.213,6.23,7.248,10.297,13.479,9.084c1.227-0.239,2.407-0.676,3.493-1.295
	c1.939-1.107,4.315-1.129,6.274-0.057c1.781,0.958,2.913,2.794,2.969,4.815c0.163,4.521-2.465,8.679-6.619,10.472l2.034,1.347
	c5.107,3.301,6.66,10.065,3.505,15.264c-1.577,2.499-4.1,4.252-6.992,4.859C265.555,94.439,264.777,94.521,263.998,94.522z"/>
<path fill="#3F3D56" d="M452.857,230.324c-0.59-0.001-1.176-0.089-1.739-0.263c-2.296-0.693-3.966-2.677-4.257-5.058l-0.019-0.135
	c-0.939-6.28-6.792-10.61-13.072-9.67c-1.862,0.278-3.627,1.01-5.141,2.13c-2.655,1.914-6.358,1.313-8.272-1.342
	c-0.521-0.723-0.873-1.555-1.028-2.433c-0.752-4.477,1.329-8.955,5.235-11.267l-2.5-1.232c-2.726-1.348-4.774-3.761-5.662-6.668
	c-0.897-2.915-0.534-6.072,1.002-8.707c3.038-5.047,9.463-6.881,14.708-4.199c17.385-2.414,30.665,4.311,40.042,19.732
	c2.726,1.348,4.774,3.76,5.663,6.668c0.896,2.915,0.532,6.071-1.003,8.706c-3.038,5.046-9.463,6.881-14.707,4.2l-2.178-1.073
	c0.264,2.116-0.102,4.262-1.05,6.172c-0.433,0.881-0.982,1.701-1.633,2.437C456.14,229.59,454.54,230.319,452.857,230.324z"/>
<path fill="#3F3D56" d="M647.515,376.628c-2.929,0.034-5.598-1.678-6.787-4.355l-0.066-0.151c-0.856-1.953-1.118-4.115-0.753-6.217
	l-2.557,1.111c-5.573,2.421-12.053-0.135-14.474-5.708c-0.027-0.062-0.054-0.124-0.079-0.188
	c-2.203-5.667,0.502-12.058,6.104-14.422c7.163-16.539,20.293-23.107,40.623-17.652c5.367-2.423,11.694-0.283,14.489,4.9l0,0
	c1.407,2.705,1.619,5.875,0.584,8.743c-1.027,2.862-3.189,5.174-5.976,6.391l-2.557,1.11c1.785,1.167,3.187,2.833,4.03,4.791
	c0.123,0.282,0.232,0.566,0.33,0.853c0.956,2.784,0.146,5.869-2.052,7.826c-2.229,2.091-5.493,2.639-8.281,1.39
	c-1.438-0.636-2.992-0.968-4.564-0.974h-0.057c-4.309,0.102-8.215,2.558-10.172,6.396c-0.227,0.419-0.429,0.852-0.604,1.294
	c-1.116,2.895-3.881,4.819-6.982,4.859C647.647,376.627,647.581,376.628,647.515,376.628z"/>
<path fill="#FFB6B6" d="M797.806,295.878c-8.311-2.406-16.999,2.379-19.406,10.689c-0.479,1.651-0.682,3.37-0.602,5.088
	L739.16,389.84l-55.438-12.447c-2.997-7.899-11.829-11.873-19.729-8.876c-7.898,2.997-11.872,11.83-8.875,19.729
	c2.997,7.898,11.83,11.872,19.729,8.875c1.51-0.573,2.919-1.381,4.176-2.395c13.188,7.594,72.962,40.353,85.647,17.896
	c10.663-18.877,45.048-81.415,44.437-102.149C808.91,303.67,804.343,297.772,797.806,295.878z"/>
<circle fill="#3DB8B6" cx="490.881" cy="112.98" r="5.595"/>
</svg>
