<?xml version="1.0" encoding="utf-8"?>
<!-- Generator: Adobe Illustrator 16.0.0, SVG Export Plug-In . SVG Version: 6.00 Build 0)  -->
<!DOCTYPE svg PUBLIC "-//W3C//DTD SVG 1.1//EN" "http://www.w3.org/Graphics/SVG/1.1/DTD/svg11.dtd">
<svg version="1.1" id="Layer_1" xmlns="http://www.w3.org/2000/svg" xmlns:xlink="http://www.w3.org/1999/xlink" x="0px" y="0px"
	 width="774.131px" height="669.898px" viewBox="0 0 774.131 669.898" enable-background="new 0 0 774.131 669.898"
	 xml:space="preserve">
<path fill="#F2F2F2" d="M611.307,55.32c-0.87-0.58-1.75-1.13-2.62-1.69c-25.149-16.084-52.104-29.151-80.31-38.93l-6.54,90.22
	h-41.46V1.53c-2.61-0.54-5.24-1.05-7.87-1.53v104.92h-49.271c-56.482,0-102.27-45.788-102.27-102.27l0,0
	c-2.64,0.57-5.26,1.18-7.88,1.83v100.44h-40.13l-6.23-86.03c-28.985,11.116-56.503,25.734-81.94,43.53
	c-0.44,0.3-0.88,0.61-1.31,0.91c-2.21,1.55-4.39,3.13-6.56,4.73v344.19h118.27l-2.09-28.95l-11.5-158.95h231.59l-11.5,158.95
	l-2.09,28.95h116.96V58.8C614.816,57.62,613.066,56.46,611.307,55.32z M313.086,198.1h-33.39l-6.17-85.3h39.56V198.1z
	 M472.507,198.1h-56.08v-1.69c0-3.413-2.767-6.18-6.18-6.18c-0.004,0-0.007,0-0.011,0h-24.38c-3.412-0.001-6.179,2.763-6.18,6.175
	c0,0.001,0,0.003,0,0.005v1.69h-58.71v-85.3h151.541V198.1z M480.377,198.1v-85.3h40.89l-6.17,85.3H480.377z"/>
<path fill="#F2F2F2" d="M739.75,625.549l0.781-17.575c8.148-4.356,17.237-6.657,26.478-6.703
	c-12.717,10.397-11.128,30.438-19.749,44.419c-5.515,8.792-14.729,14.598-25.038,15.779l-10.642,6.516
	c-2.956-16.475,1.451-33.417,12.059-46.364c2.977-3.56,6.389-6.73,10.157-9.438C736.345,618.903,739.75,625.549,739.75,625.549z"/>
<path fill="#F2F2F2" d="M168.799,606.289l-25.68-7.775c-3.368-13.683-3.345-27.981,0.067-41.653
	c10.576,22.709,40.792,27.908,58.207,45.916c10.915,11.461,16.026,27.264,13.888,42.945l5.621,18.182
	c-25.46-1.838-48.838-14.732-63.977-35.285c-4.14-5.739-7.541-11.977-10.122-18.564
	C157.695,608.817,168.799,606.289,168.799,606.289z"/>
<path fill="#E6E6E6" d="M719.767,665.11c-0.004,0.532-0.216,1.042-0.59,1.42c-0.374,0.373-0.882,0.581-1.41,0.58h-8.04
	c-1.101,0.004-1.996-0.886-2-1.986c0-0.005,0-0.01,0-0.014V421.97c0-5.359-1.8-9.71-4.01-9.72h-602.49
	c-2.22,0.01-4.01,4.36-4.02,9.72v241.65c-0.003,1.029-0.786,1.89-1.81,1.99c-1.62,0.159-3.24,0.3-4.85,0.43
	c-0.04,0-0.08,0.01-0.12,0.01c-0.88,0.08-1.76,0.141-2.64,0.21h-0.01c-0.46-0.83-0.9-1.68-1.35-2.529
	c-0.145-0.289-0.22-0.607-0.22-0.931V409.36c0-1.48,0.06-2.971,0.16-4.44c0.143-2.019,0.393-4.028,0.75-6.02
	c1.69-9.29,5.51-15.58,9.85-15.601h611c0.633,0.005,1.259,0.137,1.84,0.39c0.853,0.378,1.624,0.918,2.27,1.591
	c0.878,0.911,1.628,1.938,2.23,3.05c2.14,3.77,3.67,9.39,4.21,15.93c0,0.061,0.01,0.12,0.01,0.18c0.141,1.62,0.21,3.271,0.2,4.921
	l0.14,21.43l0.091,12.78l0.27,40.1l0.1,14.24L719.767,665.11z"/>
<path fill="#CACACA" d="M772.94,669.591l-275.75,0.308c-0.657-0.003-1.188-0.539-1.185-1.197c0.004-0.652,0.532-1.181,1.185-1.184
	l275.75-0.308c0.658,0.003,1.188,0.539,1.185,1.196C774.122,669.06,773.594,669.588,772.94,669.591z"/>
<path fill="#2F2E41" d="M430.668,312.262H381.83c-1.439,0.002-2.604,1.169-2.602,2.608v77.149h54.048V314.87
	c0.001-1.44-1.166-2.608-2.605-2.608C430.67,312.262,430.669,312.262,430.668,312.262z M406.413,356.097
	c-3.179-0.015-5.752-2.588-5.767-5.767v-8.898c0.003-3.186,2.587-5.765,5.771-5.763c3.182,0.003,5.76,2.581,5.763,5.763v8.898
	C412.165,353.509,409.592,356.082,406.413,356.097L406.413,356.097z"/>
<path fill="#3F3D56" d="M511.54,191.86H302.775c-3.734,0.006-6.76,3.032-6.766,6.766v140.875c0.004,3.735,3.031,6.763,6.766,6.767
	H511.54c3.735-0.004,6.763-3.031,6.766-6.767V198.626C518.3,194.892,515.274,191.866,511.54,191.86z"/>
<path fill="#FFFFFF" d="M509.794,196.746H304.516c-2,0.004-3.618,1.626-3.619,3.626v137.383c0.003,1.997,1.622,3.615,3.619,3.619
	h205.278c1.997-0.004,3.615-1.622,3.618-3.619V200.372C513.412,198.372,511.793,196.75,509.794,196.746z"/>
<path fill="#3F3D56" d="M379.061,389.552v7.443c0.001,0.804,0.652,1.454,1.455,1.455h51.474c0.802-0.004,1.451-0.652,1.455-1.455
	v-7.443H379.061z"/>
<path fill="#2F2E41" d="M469.813,401.041H347.684c-1.241,0-2.247-1.006-2.247-2.247c0-0.155,0.016-0.311,0.048-0.463l1.895-9
	c0.222-1.037,1.137-1.78,2.198-1.784h118.34c1.061,0.004,1.976,0.747,2.198,1.784l1.895,9c0.256,1.215-0.521,2.406-1.735,2.661
	C470.123,401.024,469.968,401.041,469.813,401.041z"/>
<path fill="#3F3D56" d="M350.934,389.168h2.785c0.27,0,0.488,0.219,0.488,0.488v1.28c0,0.27-0.219,0.488-0.488,0.488h-2.785
	c-0.27,0-0.488-0.219-0.488-0.488v-1.28C350.446,389.387,350.664,389.168,350.934,389.168z"/>
<path fill="#3F3D56" d="M358.457,389.168h2.785c0.27,0,0.488,0.219,0.488,0.488v1.28c0,0.27-0.219,0.488-0.488,0.488h-2.785
	c-0.27,0-0.488-0.219-0.488-0.488v-1.28C357.969,389.387,358.187,389.168,358.457,389.168z"/>
<path fill="#3F3D56" d="M365.979,389.168h2.785c0.27,0,0.488,0.219,0.488,0.488v1.28c0,0.27-0.219,0.488-0.488,0.488h-2.785
	c-0.27,0-0.488-0.219-0.488-0.488v-1.28C365.491,389.387,365.71,389.168,365.979,389.168z"/>
<path fill="#3F3D56" d="M373.502,389.168h2.785c0.27,0,0.488,0.219,0.488,0.488v1.28c0,0.27-0.219,0.488-0.488,0.488h-2.785
	c-0.27,0-0.488-0.219-0.488-0.488v-1.28C373.014,389.387,373.233,389.168,373.502,389.168z"/>
<path fill="#3F3D56" d="M381.025,389.168h2.785c0.27,0,0.488,0.219,0.488,0.488v1.28c0,0.27-0.219,0.488-0.488,0.488h-2.785
	c-0.27,0-0.488-0.219-0.488-0.488v-1.28C380.537,389.387,380.756,389.168,381.025,389.168z"/>
<path fill="#3F3D56" d="M388.548,389.168h2.785c0.27,0,0.488,0.219,0.488,0.488v1.28c0,0.27-0.219,0.488-0.488,0.488h-2.785
	c-0.27,0-0.488-0.219-0.488-0.488v-1.28C388.06,389.387,388.278,389.168,388.548,389.168z"/>
<path fill="#3F3D56" d="M396.071,389.168h2.785c0.27,0,0.488,0.219,0.488,0.488v1.28c0,0.27-0.219,0.488-0.488,0.488h-2.785
	c-0.27,0-0.488-0.219-0.488-0.488v-1.28C395.583,389.387,395.802,389.168,396.071,389.168z"/>
<path fill="#3F3D56" d="M403.594,389.168h2.785c0.27,0,0.488,0.219,0.488,0.488v1.28c0,0.27-0.219,0.488-0.488,0.488h-2.785
	c-0.27,0-0.487-0.219-0.487-0.488v-1.28C403.106,389.387,403.324,389.168,403.594,389.168z"/>
<path fill="#3F3D56" d="M411.117,389.168h2.785c0.27,0,0.488,0.219,0.488,0.488v1.28c0,0.27-0.219,0.488-0.488,0.488h-2.785
	c-0.27,0-0.488-0.219-0.488-0.488v-1.28C410.629,389.387,410.848,389.168,411.117,389.168z"/>
<path fill="#3F3D56" d="M418.64,389.168h2.785c0.27,0,0.488,0.219,0.488,0.488v1.28c0,0.27-0.219,0.488-0.488,0.488h-2.785
	c-0.27,0-0.488-0.219-0.488-0.488v-1.28C418.151,389.387,418.37,389.168,418.64,389.168z"/>
<path fill="#3F3D56" d="M426.163,389.168h2.785c0.27,0,0.488,0.219,0.488,0.488v1.28c0,0.27-0.219,0.488-0.488,0.488h-2.785
	c-0.27,0-0.488-0.219-0.488-0.488v-1.28C425.675,389.387,425.894,389.168,426.163,389.168z"/>
<path fill="#3F3D56" d="M433.686,389.168h2.785c0.27,0,0.488,0.219,0.488,0.488v1.28c0,0.27-0.219,0.488-0.488,0.488h-2.785
	c-0.27,0-0.488-0.219-0.488-0.488v-1.28C433.197,389.387,433.416,389.168,433.686,389.168z"/>
<path fill="#3F3D56" d="M441.209,389.168h2.785c0.27,0,0.488,0.219,0.488,0.488v1.28c0,0.27-0.219,0.488-0.488,0.488h-2.785
	c-0.27,0-0.488-0.219-0.488-0.488v-1.28C440.721,389.387,440.939,389.168,441.209,389.168z"/>
<path fill="#3F3D56" d="M448.731,389.168h2.785c0.27,0,0.488,0.219,0.488,0.488v1.28c0,0.27-0.219,0.488-0.488,0.488h-2.785
	c-0.27,0-0.488-0.219-0.488-0.488v-1.28C448.243,389.387,448.462,389.168,448.731,389.168z"/>
<path fill="#3F3D56" d="M456.255,389.168h2.785c0.27,0,0.487,0.219,0.487,0.488v1.28c0,0.27-0.218,0.488-0.487,0.488h-2.785
	c-0.27,0-0.488-0.219-0.488-0.488v-1.28C455.767,389.387,455.985,389.168,456.255,389.168z"/>
<path fill="#3F3D56" d="M463.777,389.168h2.785c0.27,0,0.488,0.219,0.488,0.488v1.28c0,0.27-0.219,0.488-0.488,0.488h-2.785
	c-0.27,0-0.488-0.219-0.488-0.488v-1.28C463.289,389.387,463.508,389.168,463.777,389.168z"/>
<path fill="#3F3D56" d="M350.845,392.93h2.785c0.27,0,0.488,0.219,0.488,0.488v1.28c0,0.27-0.219,0.488-0.488,0.488h-2.785
	c-0.27,0-0.488-0.219-0.488-0.488v-1.28C350.357,393.148,350.575,392.93,350.845,392.93z"/>
<path fill="#3F3D56" d="M358.368,392.93h2.785c0.27,0,0.488,0.219,0.488,0.488v1.28c0,0.27-0.219,0.488-0.488,0.488h-2.785
	c-0.27,0-0.488-0.219-0.488-0.488v-1.28C357.88,393.148,358.098,392.93,358.368,392.93z"/>
<path fill="#3F3D56" d="M365.891,392.93h2.785c0.27,0,0.488,0.219,0.488,0.488v1.28c0,0.27-0.219,0.488-0.488,0.488h-2.785
	c-0.27,0-0.488-0.219-0.488-0.488v-1.28C365.402,393.148,365.621,392.93,365.891,392.93z"/>
<path fill="#3F3D56" d="M373.414,392.93h2.785c0.27,0,0.488,0.219,0.488,0.488v1.28c0,0.27-0.219,0.488-0.488,0.488h-2.785
	c-0.27,0-0.488-0.219-0.488-0.488v-1.28C372.925,393.148,373.144,392.93,373.414,392.93z"/>
<path fill="#3F3D56" d="M380.937,392.93h2.785c0.27,0,0.488,0.219,0.488,0.488v1.28c0,0.27-0.219,0.488-0.488,0.488h-2.785
	c-0.27,0-0.488-0.219-0.488-0.488v-1.28C380.448,393.148,380.667,392.93,380.937,392.93z"/>
<path fill="#3F3D56" d="M388.46,392.93h2.785c0.27,0,0.488,0.219,0.488,0.488v1.28c0,0.27-0.219,0.488-0.488,0.488h-2.785
	c-0.27,0-0.488-0.219-0.488-0.488v-1.28C387.972,393.148,388.19,392.93,388.46,392.93z"/>
<path fill="#3F3D56" d="M395.982,392.93h2.785c0.27,0,0.488,0.219,0.488,0.488v1.28c0,0.27-0.219,0.488-0.488,0.488h-2.785
	c-0.27,0-0.488-0.219-0.488-0.488v-1.28C395.494,393.148,395.713,392.93,395.982,392.93z"/>
<path fill="#3F3D56" d="M403.505,392.93h2.785c0.27,0,0.488,0.219,0.488,0.488v1.28c0,0.27-0.219,0.488-0.488,0.488h-2.785
	c-0.27,0-0.487-0.219-0.487-0.488v-1.28C403.018,393.148,403.235,392.93,403.505,392.93z"/>
<path fill="#3F3D56" d="M411.028,392.93h2.785c0.27,0,0.488,0.219,0.488,0.488v1.28c0,0.27-0.219,0.488-0.488,0.488h-2.785
	c-0.27,0-0.488-0.219-0.488-0.488v-1.28C410.54,393.148,410.759,392.93,411.028,392.93z"/>
<path fill="#3F3D56" d="M418.551,392.93h2.785c0.27,0,0.488,0.219,0.488,0.488v1.28c0,0.27-0.219,0.488-0.488,0.488h-2.785
	c-0.27,0-0.488-0.219-0.488-0.488v-1.28C418.063,393.148,418.281,392.93,418.551,392.93z"/>
<path fill="#3F3D56" d="M426.074,392.93h2.785c0.27,0,0.488,0.219,0.488,0.488v1.28c0,0.27-0.219,0.488-0.488,0.488h-2.785
	c-0.27,0-0.488-0.219-0.488-0.488v-1.28C425.586,393.148,425.805,392.93,426.074,392.93z"/>
<path fill="#3F3D56" d="M433.597,392.93h2.785c0.27,0,0.488,0.219,0.488,0.488v1.28c0,0.27-0.219,0.488-0.488,0.488h-2.785
	c-0.27,0-0.488-0.219-0.488-0.488v-1.28C433.108,393.148,433.327,392.93,433.597,392.93z"/>
<path fill="#3F3D56" d="M441.12,392.93h2.785c0.27,0,0.487,0.219,0.487,0.488v1.28c0,0.27-0.218,0.488-0.487,0.488h-2.785
	c-0.27,0-0.488-0.219-0.488-0.488v-1.28C440.632,393.148,440.851,392.93,441.12,392.93z"/>
<path fill="#3F3D56" d="M448.643,392.93h2.785c0.27,0,0.488,0.219,0.488,0.488v1.28c0,0.27-0.219,0.488-0.488,0.488h-2.785
	c-0.27,0-0.488-0.219-0.488-0.488v-1.28C448.154,393.148,448.373,392.93,448.643,392.93z"/>
<path fill="#3F3D56" d="M456.166,392.93h2.785c0.27,0,0.487,0.219,0.487,0.488v1.28c0,0.27-0.218,0.488-0.487,0.488h-2.785
	c-0.27,0-0.488-0.219-0.488-0.488v-1.28C455.678,393.148,455.896,392.93,456.166,392.93z"/>
<path fill="#3F3D56" d="M463.688,392.93h2.785c0.27,0,0.488,0.219,0.488,0.488v1.28c0,0.27-0.219,0.488-0.488,0.488h-2.785
	c-0.27,0-0.488-0.219-0.488-0.488v-1.28C463.2,393.148,463.419,392.93,463.688,392.93z"/>
<path fill="#3F3D56" d="M386.955,397.443h29.115c0.27,0,0.488,0.219,0.488,0.488v1.28c0,0.27-0.219,0.488-0.488,0.488h-29.115
	c-0.27,0-0.488-0.219-0.488-0.488v-1.28C386.467,397.662,386.685,397.443,386.955,397.443z"/>
<path fill="#CACACA" d="M499.479,215.675H307.401c-0.422-0.008-0.757-0.357-0.748-0.779c0.008-0.41,0.338-0.74,0.748-0.749h192.078
	c0.422,0.009,0.757,0.358,0.748,0.78C500.218,215.337,499.888,215.667,499.479,215.675z"/>
<ellipse fill="#3F3D56" cx="320.476" cy="205.671" rx="4.476" ry="4.576"/>
<ellipse fill="#3F3D56" cx="335.94" cy="205.671" rx="4.477" ry="4.576"/>
<ellipse fill="#3F3D56" cx="351.404" cy="205.671" rx="4.476" ry="4.576"/>
<path fill="#3F3D56" d="M490.168,202.229h-10.985c-0.459,0.009-0.824,0.389-0.815,0.848c0.009,0.447,0.369,0.807,0.815,0.815h10.985
	c0.459-0.009,0.824-0.389,0.814-0.848C490.974,202.598,490.614,202.238,490.168,202.229z"/>
<path fill="#3F3D56" d="M490.168,205.352h-10.985c-0.459,0.009-0.824,0.389-0.815,0.849c0.009,0.446,0.369,0.806,0.815,0.815h10.985
	c0.459-0.009,0.824-0.389,0.814-0.848C490.974,205.72,490.614,205.36,490.168,205.352z"/>
<path fill="#3F3D56" d="M490.168,208.47h-10.985c-0.459,0.009-0.824,0.389-0.815,0.848c0.009,0.447,0.369,0.807,0.815,0.815h10.985
	c0.459-0.009,0.824-0.389,0.814-0.848C490.974,208.838,490.614,208.479,490.168,208.47z"/>
<path fill="#3DB8B6" d="M394.782,260.3h24.001c1.803,0,3.264,1.461,3.264,3.264l0,0c0,1.803-1.461,3.264-3.264,3.264h-24.001
	c-1.803,0-3.265-1.461-3.265-3.264l0,0C391.518,261.761,392.979,260.3,394.782,260.3z"/>
<path fill="#E6E6E6" d="M379.277,273.356h55.011c1.803,0,3.264,1.461,3.264,3.264l0,0c0,1.803-1.461,3.264-3.264,3.264h-55.011
	c-1.803,0-3.265-1.461-3.265-3.264l0,0C376.013,274.818,377.474,273.356,379.277,273.356z"/>
<path fill="#E6E6E6" d="M379.277,286.413h55.011c1.803,0,3.264,1.461,3.264,3.264l0,0c0,1.803-1.461,3.264-3.264,3.264h-55.011
	c-1.803,0-3.265-1.461-3.265-3.264l0,0C376.013,287.875,377.474,286.413,379.277,286.413z"/>
<path fill="#3F3D56" d="M309.276,410.86h-60c-4.418,0-8,3.581-8,8c0,4.418,3.582,8,8,8h22v62h16v-62h22c4.418,0,8-3.582,8-8
	C317.276,414.441,313.695,410.86,309.276,410.86z"/>
<path fill="#3F3D56" d="M348.877,523.197H188.395c-32.158-0.118-59.366-23.801-63.917-55.636l-5.681-20.896
	c-11.758-43.301-29.667-84.69-53.181-122.903c-10.748-17.454-16.279-34.349-3.715-50.616c0.107-0.138,0.212-0.275,0.315-0.41
	c10.077-13.116,60.234-15.956,76.585-16.508c0.646-0.022,1.294-0.033,1.945-0.033h99.819c0.651,0,1.3,0.011,1.945,0.033
	c17.958,0.523,34.18,10.863,42.236,26.921c8.597,16.395,7.5,36.186-2.856,51.53c-35.063,52.671-45.799,85.697-34.808,107.085
	c10.631,20.688,43.22,31.265,102.559,33.285c15.946,0.543,23.265,12.96,23.316,24.267c0.05,11.015-6.986,23.176-22.553,23.848
	C349.899,523.187,349.39,523.197,348.877,523.197z"/>
<path fill="#3F3D56" d="M215.657,665.697h60c4.418,0,8-3.582,8-8c0-4.419-3.582-8-8-8h-22v-135h-16v135h-22c-4.418,0-8,3.581-8,8
	C207.657,662.115,211.239,665.697,215.657,665.697z"/>
<path fill="#2F2E41" d="M210.865,261.208l1.258,7.643c0.595,3.706,2.75,29.886,1.153,33.009c-0.141-5.832-11-15-18.036-12.906
	l-11.042,2.453l-6.854,1.525l-5.578,1.223l-16.209,3.541c-0.028-0.188-0.049-0.388-0.077-0.576
	c-0.039-0.237-0.077-0.474-0.125-0.709c-0.302-1.52-0.852-2.98-1.629-4.321c-0.082,1.796-0.612,3.543-1.542,5.083
	c-0.025,0.04-0.047,0.082-0.066,0.125c-0.288,0.466-0.605,0.913-0.951,1.338c-0.016,0.011-0.03,0.024-0.043,0.04
	c0,0-3.331-53.09-2.981-53.58c0.255-0.348,0.513-0.687,0.782-1.018c0.267-0.34,0.527-0.669,0.806-1.001
	c0.036-0.032,0.066-0.069,0.09-0.11c0.781-0.925,1.608-1.81,2.479-2.651c0.256-0.246,0.521-0.495,0.787-0.743
	c4.055-3.752,8.9-6.547,14.179-8.178c0.595-0.183,1.214-0.351,1.843-0.52c0.621-0.158,1.254-0.308,1.891-0.438l0.216-0.044
	c0.304-0.063,0.619-0.117,0.925-0.169c0.384-0.068,0.77-0.127,1.148-0.174c4.911-0.708,9.914-0.426,14.714,0.827
	c0.01-0.002,0.012,0.008,0.021,0.006c4.007,1.047,7.816,2.743,11.276,5.021c5.983,3.951,8.313,10.395,9.966,17.63
	C209.844,256.017,210.332,258.602,210.865,261.208z"/>
<polygon fill="#FFB6B6" points="269.963,611.271 280.299,616.886 307.661,579.054 292.405,570.768 "/>
<path fill="#2F2E41" d="M274.938,597.791l18.764,5.876l-2.986,7.86l12.867,18.675c1.646,2.389,1.044,5.66-1.344,7.306
	c-1.421,0.979-3.233,1.198-4.847,0.585l-21.844-8.299l-0.811-9.206l-4.424,7.218l-8.236-3.13L274.938,597.791z"/>
<path fill="#FFB6B6" d="M328.51,442.06c-6.232,1.518-12.515-2.304-14.033-8.536c-0.162-0.665-0.265-1.343-0.307-2.025
	l-88.162-31.716l16.18-14.08l83.678,33.317c6.449,0.024,11.657,5.273,11.632,11.723C337.477,436.139,333.761,440.817,328.51,442.06
	L328.51,442.06z"/>
<path fill="#3DB8B6" d="M201.38,321.209c0,0-14.848,0.327-16.168,17.279c-1.32,16.952,31.079,58.882,36.099,65.797
	c5.02,6.914,60.777,15.425,60.777,15.425l18.954-13.76c-19.916-12.905-38.092-22.8-50.291-22.355L201.38,321.209z"/>
<path fill="#FFB6B6" d="M183.169,396.007l3.618,15.546c0,0,0.036,14.335,2.574,16.979c2.521,2.631,57.955-2.651,57.955-2.651
	s-5.877-23.1-5.799-40.578L183.169,396.007z"/>
<path fill="#2F2E41" d="M300.276,594.86l-20-11c-0.38-26.025,15.273-61.244,33.84-98.133c-41.523,7.142-80.696,9.429-114.579,0.79
	c-11.575-3.057-18.55-14.84-15.663-26.458c0.132-0.548,0.285-1.09,0.458-1.627c4.055-12.372-5.038-20.128,3.326-33.735
	c21.997-7.513,42.892-9.634,62-3l11.973,26.471l59.342-7.679c12-1.435,22.89,7.13,24.325,19.13c0.006,0.055,0.013,0.109,0.019,0.164
	c0.08,0.644,0.132,1.29,0.156,1.94C333.473,517.976,320.019,568.592,300.276,594.86z"/>
<circle fill="#FFB6B6" cx="180.945" cy="264.278" r="24.805"/>
<path fill="#3DB8B6" d="M175.114,297.584l22.861-1.35c1.977-0.117,3.809,1.033,4.564,2.863l6.46,15.662l26.851,22.192
	c0,0,10.63,13.528,10.655,30.999c0.024,17.471,3.771,57.91,3.771,57.91s-15.515-21.839-25.091-16.03
	c-1.629,0.988-2.202,3.009-3.909,4.03c-0.851,0.509-2.818,0.014-3.677,0.524c-13.196,7.833-26.958,15.486-28.244,14.145
	c-2.525-2.635-5.587-16.098-5.587-16.098l-20.926-76.888c-2.297-8.19-0.812-16.98,4.049-23.962c1.462-2.058,2.994-3.589,4.417-3.843
	C174.504,307.06,172.804,299.896,175.114,297.584z"/>
<polygon fill="#FFB6B6" points="369.583,643.84 379.233,637.131 357.372,595.887 343.13,605.789 "/>
<path fill="#2F2E41" d="M371.042,616.166l-15.124,13.519c-24.048-26.796-42.228-64.376-57.633-107.053
	c-40.366-11.822-70.807-30.889-97.382-53.526c-9.016-7.629-15.773-17.429-8.085-26.722c0.36-0.435,0.735-0.854,1.126-1.26
	c9.079-9.33,32.101-7.553,45.585-16.1l30.121,32.196l-1.895,8.631l56.577,19.165c11.389,3.992,17.387,16.461,13.395,27.85
	c-0.02,0.057-0.04,0.112-0.06,0.168c-0.212,0.613-0.45,1.217-0.713,1.812L371.042,616.166z"/>
<path fill="#2F2E41" d="M363.957,641.12l15.448-12.165l4.8,6.905l22.678-0.069c2.901-0.009,5.261,2.335,5.27,5.236
	c0.006,1.726-0.838,3.345-2.255,4.33l-19.187,13.337l-8.055-4.531l3.457,7.728l-7.234,5.029L363.957,641.12z"/>
<path fill="#FFB6B6" d="M208.872,491.353c-5.905-2.506-8.66-9.324-6.153-15.229c0.267-0.63,0.589-1.234,0.963-1.808l-51.754-78.102
	l21.386-1.626l47.202,76.707c5.157,3.873,6.198,11.192,2.325,16.35C219.601,491.961,213.826,493.493,208.872,491.353
	L208.872,491.353z"/>
<path fill="#3DB8B6" d="M179.115,318.49c0,0-12.104-8.607-23.289,4.198s-10.251,65.787-10.356,74.331
	c-0.033,2.675,3.831,8.448,9.153,15.116c2.39,2.994,5.073,6.168,7.831,9.323c1.596,1.826,0.221,5.626,1.823,7.401
	c1.594,1.765,6.165,1.504,7.68,3.143c7.194,7.775,13.039,13.693,13.039,13.693l23.42,0.288c0.264-17.41-11.658-32.95-26.976-47.97
	L179.115,318.49z"/>
<path fill="#2F2E41" d="M211.947,252.229c-0.917,0.453-1.808,0.891-2.683,1.305c-3.51,1.725-7.137,3.201-10.855,4.416
	c-0.619-1.683-1.563-3.227-2.777-4.545c0.311,1.82,0.152,3.69-0.46,5.433c-5.627,1.394-11.535,1.166-17.038-0.658
	c3.599,6.664,6.258,20.706,6.064,33.229c-0.084,6.622-0.981,12.817-2.938,17.27l-2.515-7.651c-0.233-2.733-0.702-5.441-1.401-8.094
	c-1.687-7.443-3.261-2.466-5.578,1.223l-16.209,3.541c-0.028-0.188-0.049-0.388-0.077-0.576c-0.039-0.237-0.077-0.474-0.125-0.709
	c-0.302-1.52-0.852-2.98-1.629-4.321c-0.083,1.796-0.613,3.543-1.543,5.083c-0.025,0.04-0.047,0.082-0.066,0.125
	c-0.288,0.466-0.605,0.913-0.951,1.338c-0.016,0.011-0.03,0.024-0.043,0.04c-10.465,1.4-17.801-52.566-2.979-53.57
	c0.431-0.029,0.513-0.687,0.78-1.027c0.267-0.34,0.527-0.669,0.806-1.001c0.036-0.032,0.066-0.069,0.09-0.11
	c0.792-0.917,1.612-1.8,2.479-2.651c0.255-0.246,0.521-0.495,0.787-0.743c4.068-3.734,8.91-6.523,14.181-8.168
	c0.595-0.183,1.212-0.36,1.841-0.53c0.621-0.158,1.254-0.308,1.891-0.438l0.216-0.044c0.304-0.063,0.619-0.117,0.925-0.169
	c0.384-0.068,0.77-0.127,1.148-0.174c1.42,0.716,2.636,1.781,3.532,3.095l10.355-2.119c0.274-0.056,0.55-0.103,0.829-0.139
	l0.02-0.004C200.951,228.716,209.263,239.11,211.947,252.229z"/>
<path fill="#2F2E41" d="M155.508,242.688c-2.217,1.601-4.55,3.249-7.255,3.646c-2.706,0.396-5.873-0.912-6.622-3.542
	c-0.916-3.216,1.988-6.144,4.598-8.234l8.276-6.627c1.516-1.344,3.227-2.45,5.074-3.281c1.88-0.827,4.034-0.755,5.854,0.196
	c1.809,1.221,2.854,3.293,2.763,5.474c-0.118,2.149-0.828,4.224-2.05,5.996c-3.104,4.839-8.05,8.201-13.691,9.307"/>
<path fill="#3F3D56" d="M218.276,414.86h-60c-4.418,0-8,3.581-8,8c0,4.418,3.582,8,8,8h22v62h16v-62h22c4.418,0,8-3.582,8-8
	C226.276,418.441,222.695,414.86,218.276,414.86z"/>
<path fill="#CACACA" d="M439.94,668.591L1.19,668.898c-0.657-0.003-1.188-0.539-1.184-1.197c0.003-0.652,0.532-1.181,1.184-1.184
	l438.75-0.308c0.658,0.003,1.188,0.539,1.185,1.196C441.122,668.06,440.594,668.588,439.94,668.591z"/>
<polygon fill="#A0616A" points="567.621,535.776 577.388,546.42 623.092,513.813 608.676,498.102 "/>
<path fill="#2F2E41" d="M587.837,550.84v-0.01l-0.99-10.63l-0.45-0.21l-2.63-1.25l-12.41-5.87l-0.26-0.28l-2.49-2.72l-13.79,12.66
	l18.68,20.359l12.811,13.96l0.43-0.399c7.376-6.758,7.877-18.214,1.119-25.59C587.85,550.854,587.843,550.847,587.837,550.84
	L587.837,550.84z"/>
<polygon fill="#A0616A" points="517.018,641.96 530.84,646.159 553.614,594.841 533.213,588.644 "/>
<path fill="#2F2E41" d="M552.807,653.45c-2.251-4.251-6.112-7.421-10.72-8.8l-6.271-8.65l-0.49,0.04l-16.569,1.52l-0.37-0.109
	l-3.521-1.07l-5.439,17.91l44.569,13.54l0.17-0.57C555.571,662.659,555.082,657.688,552.807,653.45z"/>
<path id="b2eb929e-713e-4b71-a146-193a455bcc79-33" fill="#2F2E41" d="M630.997,373.268c0,0,88.252,85.207,32.461,111.582h-17.244
	c0,0-5.182-18.41-17.046-33.936c-1.629-2.132-7.732-1.699-9.427-3.776c-10.35-12.688-21.569-23.583-29.318-23.15l1.854,58.873l3,21
	c1.575,10.855-42.882,105.643-42.882,105.643l-27.943-10.982c0,0,29.113-78.071,29.454-89.326l-23.331-123.755L630.997,373.268z"/>
<path fill="#3DB8B6" d="M638.356,377.47c-0.45,0.642-1.037,1.175-1.72,1.561c-1.125,0.636-2.343,1.088-3.61,1.34
	c-19.87,4.51-84.78,13.859-101.63,9.399c-2.07-0.54-3.42-1.3-3.859-2.3c-1.41-3.16-1.23-16.51-0.4-32.63
	c0.15-3.02,3.479-6.29,3.68-9.45c0.141-2.37-2.85-4.6-2.689-7.01c1.1-16.3,2.52-32.91,3.47-43.41c0.6-6.75,1.01-10.97,1.01-10.97
	l-10.25-64.63l0.48-0.79l0.54-0.27l33.05-16.36l1.8-4.6c1.067-2.71,3.678-4.497,6.59-4.51l21.771-0.09
	c2.291-0.013,4.447,1.083,5.79,2.94l5.899,8.17l39,25l-0.149,0.46l-18.301,55.69l-0.09,4.34v0.01l-0.68,34.9l1.89,4.73l-2.13,7.76
	c0,0,0.98,9.07,6.23,15.81c4.76,6.12,10.819,12.5,13.56,17.681v0.01C639.127,373.11,639.637,375.59,638.356,377.47z"/>
<path id="e9cec503-1de8-4692-84d1-4d2e854ea0bd-34" fill="#2F2E41" d="M667.695,479.788l-4.718,5.96
	c0,0-43.383,30.352-44.873,33.188l-6.855,6.487l-16.59-17.733l8.627-10.813c6.904-8.654,15.824-15.483,25.979-19.89l0,0
	l13.222-11.73L667.695,479.788z"/>
<path fill="#A0616A" d="M640.129,394.601l-7.9-76.471l-2.085-31.472l22.112-3.999c0,0-0.876,22.504,2.021,35.201
	c2.858,12.529,0.38,75.062,0.203,76.733c4.429,3.961,4.809,10.762,0.848,15.191c-3.96,4.429-10.762,4.809-15.19,0.848
	c-4.43-3.96-4.81-10.762-0.849-15.19C639.553,395.146,639.833,394.865,640.129,394.601L640.129,394.601z"/>
<path fill="#3DB8B6" d="M661.699,333.977l-28.423,5.884l-2.485-9.908l-2.896-3.073l-5.789-30.323l-8.305-17.763l2.158-60.744
	l21.094,11.188l0.026,0.02c3.226,3.502,5.449,8.515,9.146,13.544c11.65,15.849,12.942,54.36,12.59,75.454
	c-0.006,0.347,0.342,0.712,0.761,1.097C663.665,323.104,664.552,329.215,661.699,333.977L661.699,333.977z"/>
<path fill="#A0616A" d="M511.424,397.601l7.9-76.471l2.086-31.472l-22.113-3.999c0,0,0.876,22.504-2.021,35.201
	c-2.858,12.529-0.379,75.062-0.202,76.733c-4.43,3.961-4.81,10.762-0.849,15.191c3.961,4.429,10.762,4.809,15.191,0.848
	c4.429-3.96,4.809-10.762,0.848-15.19C512,398.146,511.72,397.865,511.424,397.601L511.424,397.601z"/>
<path fill="#3DB8B6" d="M537.757,281.79l-6.16,13.18l-2.15,4.59l-5.79,30.32l-2.89,3.07l-2.49,9.91l-1.17-0.24l-21.1-4.37
	l-6.15-1.271c-2.857-4.761-1.972-10.875,2.12-14.63c0.42-0.38,0.77-0.75,0.76-1.1c-0.35-21.09,0.94-59.6,12.59-75.45
	c3.7-5.03,5.92-10.04,9.15-13.54c0.01-0.01,0.01-0.02,0.02-0.02l7.86-12.87l0.48-0.79l0.54-0.27L537.757,281.79z"/>
<circle id="e944ea38-edcc-43c9-bf24-dbaf21228ba4" fill="#A0616A" cx="575.073" cy="157.587" r="28.966"/>
<path fill="#2F2E41" d="M607.637,144.88c-0.101-4.94-0.66-11.26-4.12-16.3c-2.92-4.24-8.81-7.6-14.3-5.92
	c0.125-2.239-1.02-4.358-2.96-5.48c-2.08-1.27-4.58-1.5-6.79-1.71c-5.57-0.52-11.34-1.06-16.98,0.01c-6.33,1.2-11.51,4.46-14.2,8.95
	l-0.06,0.14l-0.55,2.66c-0.148,0.722-0.605,1.343-1.25,1.7c-0.646,0.363-1.42,0.417-2.11,0.15c-1.185-0.444-2.505,0.156-2.949,1.34
	c-0.136,0.363-0.178,0.755-0.121,1.14l0.15,1.06l-1.59-0.3c-1.238-0.24-2.437,0.57-2.676,1.808
	c-0.081,0.416-0.044,0.846,0.105,1.242l0.44,1.21c-0.664,0.009-1.296,0.287-1.75,0.77c-0.659,0.715-0.78,1.774-0.3,2.62
	c1.781,3.042,4.308,5.581,7.34,7.38c1.363,0.821,2.834,1.451,4.37,1.87c0.319,0.09,0.649,0.17,0.989,0.24
	c12.278,2.646,24.937,3.025,37.351,1.12c-0.731,2.449-1.013,5.01-0.83,7.56c0.399,3.19,2.27,5.82,4.77,6.7
	c0.566,0.192,1.149,0.333,1.74,0.42c0.566,0.092,1.125,0.229,1.67,0.41c2.522,0.924,3.817,3.718,2.894,6.24
	c-0.297,0.812-0.806,1.53-1.474,2.081c0,0,2.62,2.17,2.95,2.06c1.288-0.569,2.365-1.527,3.08-2.74
	C605.467,166.13,607.877,156.57,607.637,144.88z"/>
</svg>
