<?xml version="1.0" encoding="utf-8"?>
<!-- Generator: Adobe Illustrator 16.0.0, SVG Export Plug-In . SVG Version: 6.00 Build 0)  -->
<!DOCTYPE svg PUBLIC "-//W3C//DTD SVG 1.1//EN" "http://www.w3.org/Graphics/SVG/1.1/DTD/svg11.dtd">
<svg version="1.1" id="Layer_1" xmlns="http://www.w3.org/2000/svg" xmlns:xlink="http://www.w3.org/1999/xlink" x="0px" y="0px"
	 width="655px" height="413.68px" viewBox="0 0 655 413.68" enable-background="new 0 0 655 413.68" xml:space="preserve">
<path fill="#E6E6E6" d="M416.563,129.423c1.236-13.306,4.648-26.318,10.101-38.517c1.521-3.395,3.192-6.715,5.019-9.961
	c0.195-0.361,0.061-0.813-0.301-1.008c-0.345-0.186-0.774-0.074-0.982,0.257c-6.64,11.821-11.291,24.653-13.769,37.982
	c-0.688,3.723-1.207,7.471-1.554,11.246C414.988,130.375,416.476,130.369,416.563,129.423z"/>
<circle fill="#E6E6E6" cx="435.282" cy="73.914" r="9.414"/>
<path fill="#E6E6E6" d="M417.526,129.673c0.801-8.632,3.015-17.074,6.553-24.988c0.985-2.203,2.07-4.356,3.255-6.462
	c0.127-0.235,0.039-0.527-0.195-0.654c-0.224-0.121-0.502-0.048-0.637,0.167c-4.308,7.668-7.325,15.993-8.933,24.641
	c-0.446,2.415-0.782,4.847-1.008,7.296C416.505,130.291,417.469,130.287,417.526,129.673z"/>
<circle fill="#E6E6E6" cx="429.67" cy="93.662" r="6.108"/>
<path fill="#E6E6E6" d="M416.309,129.096c-4.677-7.299-8.124-15.316-10.202-23.732c-0.577-2.343-1.047-4.709-1.407-7.098
	c-0.045-0.263-0.294-0.44-0.557-0.396c-0.25,0.042-0.425,0.271-0.399,0.524c1.32,8.696,4.062,17.115,8.112,24.922
	c1.133,2.179,2.364,4.303,3.693,6.373C415.883,130.211,416.642,129.615,416.309,129.096L416.309,129.096z"/>
<circle fill="#E6E6E6" cx="403.735" cy="93.233" r="6.108"/>
<path fill="#F2F2F2" d="M397.559,134.5v-12c0.003-2.484,2.017-4.497,4.5-4.5h28c2.484,0.003,4.498,2.016,4.5,4.5v12
	c-0.002,2.484-2.016,4.497-4.5,4.5h-28C399.575,138.997,397.562,136.984,397.559,134.5z"/>
<path fill="#F2F2F2" d="M429.059,58h-12c-2.483-0.003-4.497-2.016-4.5-4.5v-49c0.003-2.484,2.017-4.497,4.5-4.5h12
	c2.484,0.003,4.498,2.016,4.5,4.5v49C433.557,55.984,431.543,57.997,429.059,58z"/>
<rect x="413.059" y="9.5" fill="#CCCCCC" width="20" height="4"/>
<rect x="413.059" y="40.5" fill="#CCCCCC" width="20" height="4"/>
<path fill="#F2F2F2" d="M459.059,58h-12c-2.483-0.003-4.497-2.016-4.5-4.5v-49c0.003-2.484,2.017-4.497,4.5-4.5h12
	c2.484,0.003,4.498,2.016,4.5,4.5v49C463.557,55.984,461.543,57.997,459.059,58z"/>
<rect x="443.059" y="9.5" fill="#CCCCCC" width="20" height="4"/>
<rect x="443.059" y="40.5" fill="#CCCCCC" width="20" height="4"/>
<path fill="#F2F2F2" d="M489.059,58h-12c-2.483-0.003-4.497-2.016-4.5-4.5v-49c0.003-2.484,2.017-4.497,4.5-4.5h12
	c2.484,0.003,4.498,2.016,4.5,4.5v49C493.557,55.984,491.543,57.997,489.059,58z"/>
<rect x="473.059" y="9.5" fill="#CCCCCC" width="20" height="4"/>
<rect x="473.059" y="40.5" fill="#CCCCCC" width="20" height="4"/>
<path fill="#F2F2F2" d="M505.059,139h-12c-2.483-0.003-4.497-2.016-4.5-4.5v-49c0.003-2.484,2.017-4.497,4.5-4.5h12
	c2.484,0.003,4.498,2.016,4.5,4.5v49C509.557,136.984,507.543,138.997,505.059,139z"/>
<rect x="489.059" y="90.5" fill="#CCCCCC" width="20" height="4"/>
<rect x="489.059" y="121.5" fill="#CCCCCC" width="20" height="4"/>
<path fill="#F2F2F2" d="M535.059,139h-12c-2.483-0.003-4.497-2.016-4.5-4.5v-49c0.003-2.484,2.017-4.497,4.5-4.5h12
	c2.484,0.003,4.498,2.016,4.5,4.5v49C539.557,136.984,537.543,138.997,535.059,139z"/>
<rect x="519.059" y="90.5" fill="#CCCCCC" width="20" height="4"/>
<rect x="519.059" y="121.5" fill="#CCCCCC" width="20" height="4"/>
<path fill="#F2F2F2" d="M565.059,139h-12c-2.483-0.003-4.497-2.016-4.5-4.5v-49c0.003-2.484,2.017-4.497,4.5-4.5h12
	c2.484,0.003,4.498,2.016,4.5,4.5v49C569.557,136.984,567.543,138.997,565.059,139z"/>
<rect x="549.059" y="90.5" fill="#CCCCCC" width="20" height="4"/>
<rect x="549.059" y="121.5" fill="#CCCCCC" width="20" height="4"/>
<path fill="#F2F2F2" d="M426.059,220h-12c-2.483-0.003-4.497-2.016-4.5-4.5v-49c0.003-2.484,2.017-4.497,4.5-4.5h12
	c2.484,0.003,4.498,2.016,4.5,4.5v49C430.557,217.984,428.543,219.997,426.059,220z"/>
<rect x="410.059" y="171.5" fill="#CCCCCC" width="20" height="4"/>
<rect x="410.059" y="202.5" fill="#CCCCCC" width="20" height="4"/>
<path fill="#F2F2F2" d="M456.059,220h-12c-2.483-0.003-4.497-2.016-4.5-4.5v-49c0.003-2.484,2.017-4.497,4.5-4.5h12
	c2.484,0.003,4.498,2.016,4.5,4.5v49C460.557,217.984,458.543,219.997,456.059,220z"/>
<rect x="440.059" y="171.5" fill="#CCCCCC" width="20" height="4"/>
<rect x="440.059" y="202.5" fill="#CCCCCC" width="20" height="4"/>
<path fill="#F2F2F2" d="M486.059,220h-12c-2.483-0.003-4.497-2.016-4.5-4.5v-49c0.003-2.484,2.017-4.497,4.5-4.5h12
	c2.484,0.003,4.498,2.016,4.5,4.5v49C490.557,217.984,488.543,219.997,486.059,220z"/>
<rect x="470.059" y="171.5" fill="#CCCCCC" width="20" height="4"/>
<rect x="470.059" y="202.5" fill="#CCCCCC" width="20" height="4"/>
<path fill="#F2F2F2" d="M519.059,58h-12c-2.483-0.003-4.497-2.016-4.5-4.5v-49c0.003-2.484,2.017-4.497,4.5-4.5h12
	c2.484,0.003,4.498,2.016,4.5,4.5v49C523.557,55.984,521.543,57.997,519.059,58z"/>
<rect x="503.059" y="9.5" fill="#CCCCCC" width="20" height="4"/>
<rect x="503.059" y="40.5" fill="#CCCCCC" width="20" height="4"/>
<path fill="#F2F2F2" d="M549.059,58h-12c-2.483-0.003-4.497-2.016-4.5-4.5v-49c0.003-2.484,2.017-4.497,4.5-4.5h12
	c2.484,0.003,4.498,2.016,4.5,4.5v49C553.557,55.984,551.543,57.997,549.059,58z"/>
<rect x="533.059" y="9.5" fill="#CCCCCC" width="20" height="4"/>
<rect x="533.059" y="40.5" fill="#CCCCCC" width="20" height="4"/>
<path fill="#F2F2F2" d="M579.059,58h-12c-2.483-0.003-4.497-2.016-4.5-4.5v-49c0.003-2.484,2.017-4.497,4.5-4.5h12
	c2.484,0.003,4.498,2.016,4.5,4.5v49C583.557,55.984,581.543,57.997,579.059,58z"/>
<rect x="563.059" y="9.5" fill="#CCCCCC" width="20" height="4"/>
<rect x="563.059" y="40.5" fill="#CCCCCC" width="20" height="4"/>
<path fill="#F2F2F2" d="M609.059,58h-12c-2.483-0.003-4.497-2.016-4.5-4.5v-49c0.003-2.484,2.017-4.497,4.5-4.5h12
	c2.484,0.003,4.498,2.016,4.5,4.5v49C613.557,55.984,611.543,57.997,609.059,58z"/>
<rect x="593.059" y="9.5" fill="#CCCCCC" width="20" height="4"/>
<rect x="593.059" y="40.5" fill="#CCCCCC" width="20" height="4"/>
<path fill="#CCCCCC" d="M654,59.5H369c-0.553,0-1-0.448-1-1s0.447-1,1-1h285c0.553,0,1,0.448,1,1S654.553,59.5,654,59.5z"/>
<path fill="#CCCCCC" d="M654,140.5H369c-0.553,0-1-0.448-1-1s0.447-1,1-1h285c0.553,0,1,0.448,1,1S654.553,140.5,654,140.5z"/>
<path fill="#CCCCCC" d="M654,221.5H369c-0.553,0-1-0.447-1-1s0.447-1,1-1h285c0.553,0,1,0.447,1,1S654.553,221.5,654,221.5z"/>
<path fill="#E6E6E6" d="M581.563,210.423c1.236-13.306,4.648-26.318,10.101-38.517c1.521-3.395,3.192-6.715,5.019-9.961
	c0.195-0.361,0.061-0.813-0.301-1.008c-0.345-0.186-0.774-0.074-0.982,0.257c-6.64,11.821-11.291,24.653-13.769,37.982
	c-0.688,3.723-1.207,7.471-1.554,11.246C579.988,211.375,581.476,211.369,581.563,210.423z"/>
<circle fill="#E6E6E6" cx="600.282" cy="154.914" r="9.414"/>
<path fill="#E6E6E6" d="M582.526,210.673c0.801-8.632,3.015-17.074,6.553-24.988c0.985-2.203,2.07-4.356,3.255-6.462
	c0.127-0.235,0.039-0.527-0.195-0.654c-0.224-0.121-0.502-0.048-0.637,0.167c-4.308,7.668-7.325,15.993-8.933,24.641
	c-0.446,2.415-0.782,4.848-1.008,7.296C581.505,211.291,582.469,211.287,582.526,210.673z"/>
<circle fill="#E6E6E6" cx="594.67" cy="174.662" r="6.108"/>
<path fill="#E6E6E6" d="M581.309,210.096c-4.677-7.298-8.124-15.316-10.202-23.732c-0.577-2.343-1.047-4.709-1.407-7.098
	c-0.045-0.263-0.294-0.44-0.557-0.396c-0.25,0.042-0.425,0.271-0.399,0.524c1.32,8.696,4.062,17.115,8.112,24.922
	c1.133,2.179,2.364,4.303,3.693,6.373C580.883,211.211,581.642,210.615,581.309,210.096L581.309,210.096z"/>
<circle fill="#E6E6E6" cx="568.735" cy="174.233" r="6.108"/>
<path fill="#F2F2F2" d="M562.559,215.5v-12c0.003-2.484,2.017-4.497,4.5-4.5h28c2.484,0.003,4.498,2.016,4.5,4.5v12
	c-0.002,2.484-2.016,4.497-4.5,4.5h-28C564.575,219.997,562.562,217.984,562.559,215.5z"/>
<path fill="#3F3D56" d="M382,363.5H1c-0.552,0-1-0.447-1-1s0.448-1,1-1h381c0.553,0,1,0.447,1,1S382.553,363.5,382,363.5z"/>
<circle fill="#2F2E41" cx="199.059" cy="205.5" r="27"/>
<polygon fill="#FFB8B8" points="173.405,378.826 172.69,366.588 219.556,358.003 220.612,376.067 "/>
<path fill="#2F2E41" d="M175.675,357.641l1.38,23.604l0,0l-14.861,0.868l0,0l-2.249-38.465l0,0l0,0
	C168.153,343.169,175.196,349.434,175.675,357.641z"/>
<polygon fill="#FFB8B8" points="193.789,378.714 186.004,388.185 145.768,362.666 157.257,348.688 "/>
<path fill="#2F2E41" d="M177.737,392.726l15.013-18.266l0,0l11.5,9.453l0,0l-24.466,29.767l0,0l0,0
	C173.434,408.459,172.517,399.078,177.737,392.726z"/>
<path fill="#2F2E41" d="M171.387,334.67l-5.32,25.079c-0.458,2.161,0.922,4.284,3.083,4.743c0.251,0.053,0.508,0.082,0.765,0.086
	l52.298,0.844c2.209,0.035,4.029-1.727,4.064-3.935c0.004-0.255-0.016-0.51-0.061-0.76l-4.575-25.923
	c-0.337-1.911-1.998-3.305-3.939-3.305H175.3C173.41,331.5,171.779,332.822,171.387,334.67z"/>
<path fill="#2F2E41" d="M180.059,343.5c0,0-51-32-61-15c-5,8.5-2.5,16.75,1.25,22.875c3.48,5.577,8.476,10.048,14.402,12.891
	l41.348,20.234l15-16l-10-9L180.059,343.5z"/>
<path fill="#2F2E41" d="M206.059,338.5c0,0,66-19,53,17s-62,22-62,22l-5-15l17-12L206.059,338.5z"/>
<circle fill="#FFB8B8" cx="199.397" cy="211.666" r="24.561"/>
<path fill="#CCCCCC" d="M200.685,342.469c-10.206-0.154-20.359-1.492-30.257-3.986l-0.292-0.08l-13.706-63.045
	c-2.551-11.465,3.858-23.03,14.933-26.943c16.53-5.931,34.546-6.291,51.299-1.024h0c11.658,3.757,18.467,15.848,15.635,27.765
	l-15.308,63.195l-0.216,0.103C216.411,341.466,208.456,342.469,200.685,342.469z"/>
<path fill="#FFB8B8" d="M182.274,347.366c1.88-5.226,7.641-7.938,12.866-6.058c0.558,0.201,1.096,0.45,1.609,0.745l26.986-23.424
	l2.441,18.408l-26.001,19.422c-3.098,4.646-9.375,5.9-14.021,2.803C182.269,356.671,180.664,351.752,182.274,347.366
	L182.274,347.366z"/>
<path fill="#CCCCCC" d="M208.012,352.476c-0.439,0-0.876-0.064-1.296-0.19c-1.386-0.403-2.49-1.453-2.962-2.816l-3.257-9.229
	c-0.625-1.746-0.106-3.696,1.302-4.902l36.769-22.074l-14.494-64.661l0.368-0.089c0.15-0.037,15-3.417,21.086,12.811
	c4.262,11.365,20.031,36.077,18.919,52.776c-0.435,6.876-5.533,12.556-12.322,13.728l-41.388,23.713
	C209.957,352.146,208.999,352.475,208.012,352.476z"/>
<path fill="#FFB8B8" d="M212.136,345.173c-1.88-5.226-7.641-7.938-12.867-6.058c-0.557,0.201-1.096,0.45-1.609,0.745l-26.986-23.425
	l-2.442,18.409l26.001,19.422c3.098,4.646,9.375,5.9,14.021,2.803C212.142,354.477,213.747,349.559,212.136,345.173L212.136,345.173
	z"/>
<path fill="#CCCCCC" d="M189.106,352.476c-0.986-0.001-1.944-0.33-2.724-0.935l-44.388-21.713
	c-6.789-1.173-11.887-6.852-12.322-13.728c-1.112-16.699,17.657-43.411,21.919-54.776c6.085-16.228,20.936-12.849,21.086-12.811
	l0.368,0.089l-17.494,66.661l39.769,20.074c1.409,1.206,1.926,3.156,1.302,4.902l-3.257,9.229c-0.473,1.363-1.577,2.413-2.962,2.816
	C189.981,352.411,189.545,352.476,189.106,352.476z"/>
<path fill="#3DB8B6" d="M242.059,362.5h-89c-3.864-0.005-6.996-3.136-7-7v-49c0.004-3.864,3.136-6.996,7-7h89
	c3.864,0.004,6.996,3.136,7,7v49C249.055,359.364,245.923,362.495,242.059,362.5z"/>
<path fill="#2F2E41" d="M174.591,210.666c-1.456-3.692,0.933-8.093,4.476-9.881s7.818-1.448,11.608-0.27
	c3.185,0.991,6.17,2.526,9.277,3.738c3.063,1.357,6.41,1.954,9.753,1.737c3.314-0.374,6.613-2.232,7.969-5.28
	c1.406-3.159,0.45-7.013-1.715-9.709c-2.303-2.606-5.284-4.522-8.611-5.535c-7.308-2.574-15.749-2.649-22.533,1.093
	c-6.784,3.742-11.394,11.71-9.992,19.33"/>
<path fill="#E6E6E6" d="M32.663,351.818c1.235-13.306,4.647-26.317,10.101-38.518c1.52-3.395,3.192-6.715,5.018-9.961
	c0.195-0.361,0.06-0.813-0.302-1.007c-0.344-0.186-0.773-0.073-0.982,0.257c-6.639,11.821-11.291,24.653-13.768,37.982
	c-0.689,3.723-1.207,7.472-1.554,11.246C31.088,352.771,32.575,352.765,32.663,351.818L32.663,351.818z"/>
<circle fill="#3DB8B6" cx="51.381" cy="296.31" r="9.415"/>
<path fill="#E6E6E6" d="M33.625,352.068c0.801-8.632,3.015-17.073,6.553-24.987c0.986-2.203,2.071-4.356,3.255-6.462
	c0.127-0.235,0.04-0.527-0.195-0.654c-0.223-0.121-0.502-0.048-0.637,0.167c-4.307,7.669-7.325,15.993-8.932,24.641
	c-0.447,2.415-0.783,4.847-1.008,7.296C32.604,352.687,33.569,352.683,33.625,352.068z"/>
<circle fill="#3DB8B6" cx="45.77" cy="316.058" r="6.107"/>
<path fill="#E6E6E6" d="M32.408,351.492c-4.677-7.299-8.124-15.316-10.202-23.733c-0.577-2.343-1.046-4.708-1.408-7.097
	c-0.044-0.263-0.293-0.44-0.556-0.396c-0.25,0.042-0.425,0.271-0.4,0.523c1.321,8.696,4.062,17.115,8.113,24.923
	c1.133,2.179,2.363,4.303,3.692,6.372C31.983,352.607,32.741,352.011,32.408,351.492L32.408,351.492z"/>
<circle fill="#3DB8B6" cx="19.834" cy="315.629" r="6.107"/>
<path fill="#F2F2F2" d="M13.659,356.896v-12c0.002-2.484,2.016-4.497,4.5-4.5h28c2.484,0.003,4.497,2.016,4.5,4.5v12
	c-0.003,2.484-2.016,4.497-4.5,4.5h-28C15.674,361.393,13.661,359.38,13.659,356.896z"/>
<path fill="#FF6584" d="M314.409,370.9c0,6.577-5.332,9.566-11.909,9.566s-11.909-2.989-11.909-9.566s2.646-14.251,11.909-11.604
	C311.763,355.326,314.409,364.323,314.409,370.9z"/>
<path fill="#3F3D56" d="M301.92,362.377c-0.958,0.002-1.768-0.709-1.891-1.659c-0.394-3.281-2.568-9.708-3.484-12.318v-0.001
	c-0.188-0.526-0.106-1.112,0.22-1.566c0.601-0.783,1.722-0.931,2.505-0.329c0.056,0.042,0.108,0.088,0.159,0.137
	c0.326,0.342,0.496,0.805,0.468,1.276c-0.179,3.351,2.263,8.765,3.735,11.694c0.474,0.941,0.095,2.088-0.847,2.562
	c-0.208,0.104-0.432,0.171-0.663,0.194C302.055,362.374,301.987,362.377,301.92,362.377z"/>
<path fill="#3F3D56" d="M310.732,354.985c4.134-3.384,0.891-10.308-4.283-8.979c-0.696,0.167-1.338,0.509-1.864,0.994
	c-3.174,2.998-3.666,10.669-3.666,10.669S306.524,358.43,310.732,354.985z"/>
<g>
	<path fill-rule="evenodd" clip-rule="evenodd" fill="#FFFFFF" d="M195.711,337.965c-0.137,0-0.272,0-0.408,0
		c-0.436-0.116-0.799-0.354-1.105-0.681c-0.568-0.605-1.026-1.288-1.401-2.026c-0.45-0.886-0.728-1.822-0.857-2.805
		c-0.092-0.706-0.099-1.411,0.075-2.105c0.27-1.077,0.819-1.959,1.813-2.515c0.643-0.358,1.33-0.513,2.055-0.333
		c0.406,0.101,0.801,0.254,1.192,0.406c0.36,0.14,0.705,0.168,1.065,0.007c0.235-0.104,0.483-0.181,0.725-0.269
		c1.167-0.426,2.27-0.297,3.301,0.396c0.287,0.193,0.515,0.448,0.702,0.753c-1.048,0.664-1.573,1.59-1.483,2.843
		c0.089,1.255,0.756,2.097,1.857,2.624c-0.012,0.045-0.017,0.072-0.026,0.098c-0.371,1.076-0.964,2.024-1.698,2.886
		c-0.502,0.589-1.135,0.845-1.907,0.635c-0.274-0.074-0.542-0.176-0.808-0.279c-0.564-0.218-1.134-0.267-1.715-0.084
		C196.627,337.66,196.17,337.813,195.711,337.965z"/>
	<path fill-rule="evenodd" clip-rule="evenodd" fill="#FFFFFF" d="M200.336,324.035c0.081,1.266-0.48,2.206-1.494,2.904
		c-0.381,0.262-0.823,0.338-1.318,0.298c0.017-0.231,0.009-0.468,0.053-0.694c0.249-1.272,1.245-2.246,2.52-2.481
		c0.026-0.005,0.05-0.018,0.075-0.026C200.227,324.035,200.282,324.035,200.336,324.035z"/>
</g>
</svg>
