<?xml version="1.0" encoding="utf-8"?>
<!-- Generator: Adobe Illustrator 16.0.0, SVG Export Plug-In . SVG Version: 6.00 Build 0)  -->
<!DOCTYPE svg PUBLIC "-//W3C//DTD SVG 1.1//EN" "http://www.w3.org/Graphics/SVG/1.1/DTD/svg11.dtd">
<svg version="1.1" id="Layer_1" xmlns="http://www.w3.org/2000/svg" xmlns:xlink="http://www.w3.org/1999/xlink" x="0px" y="0px"
	 width="691.926px" height="626.301px" viewBox="0 0 691.926 626.301" enable-background="new 0 0 691.926 626.301"
	 xml:space="preserve">
<path fill="#A0616A" d="M484.463,117.826c0.703,4.877,5.162,8.306,10.057,7.735c0.479-0.063,0.949-0.167,1.41-0.308l18.961,25.45
	l16.299-5.077l-29.744-32.056c-1.506-3.834-5.408-6.171-9.5-5.69c-4.758,0.606-8.121,4.952-7.516,9.708l0,0
	C484.44,117.669,484.45,117.748,484.463,117.826z"/>
<path fill="#E6E6E6" d="M618.346,231.493c0,0-70.797-33.041-88.705-54.145l-32.092-39.845l16.275-13.314l30.164,34.744
	c-0.275,7.3,35.379,14.785,54.545,25.426L618.346,231.493z"/>
<polygon fill="#A0616A" points="635.752,610.051 621.866,610.049 615.26,556.487 635.754,556.487 "/>
<path fill="#2F2E41" d="M636.243,624.538l-42.705-0.002v-0.541c0.002-9.178,7.443-16.619,16.623-16.621l0,0l7.801-5.916
	l14.553,5.918h3.729V624.538z"/>
<polygon fill="#A0616A" points="602.647,597.799 589.124,600.954 570.518,550.292 590.479,545.635 "/>
<path fill="#2F2E41" d="M606.415,611.795l-41.586,9.701l-0.123-0.525c-2.086-8.939,3.471-17.877,12.41-19.963l0,0l6.252-7.535
	l15.518,2.457l3.631-0.848L606.415,611.795z"/>
<path fill="#F2F2F2" d="M467.108,297.272H80.576c-2.439-0.028-4.868-0.336-7.237-0.917c-14.558-3.498-24.806-16.539-24.761-31.511
	V133.462c0.028-17.894,14.535-32.388,32.429-32.399h386.102c5.203-0.014,10.334,1.242,14.943,3.658
	c1.836,0.952,3.572,2.084,5.182,3.381c7.795,6.102,12.336,15.461,12.303,25.36v131.382
	C499.516,282.745,485.008,297.252,467.108,297.272z"/>
<path fill="#3DB8B6" d="M441.198,294.4c17.551-42.654,36.039-84.887,55.467-126.699v70.89
	c-13.473,20.106-28.408,38.978-45.729,55.81H441.198z"/>
<path fill="#3DB8B6" d="M485.432,110.34c-34.727,62.301-71.061,123.655-109.005,184.06h-6.606
	c38.576-61.353,75.543-123.731,110.902-187.133C482.391,108.132,483.969,109.161,485.432,110.34z"/>
<path fill="#3DB8B6" d="M230.598,178.357c-22.693,40.123-47.736,78.872-74.997,116.042h-39.38
	c25.794-31.423,51.607-62.847,77.438-94.27c7.411-9.048,15.454-18.527,26.569-22.204L230.598,178.357z"/>
<path fill="#FFFFFF" d="M178.264,171.923c-4.107,4.28-8.043,8.731-11.748,13.356c-8.158,9.823-16.2,19.733-24.271,29.614
	c-5.026,6.146-10.053,12.293-15.022,18.44c-1.578-1.014-3.076-2.146-4.481-3.39c-16.764-14.549-18.559-39.934-4.01-56.698
	c14.109-16.255,38.52-18.511,55.367-5.115C175.582,169.288,176.974,170.556,178.264,171.923z"/>
<path fill="#3DB8B6" d="M400.383,199.842l-75.486-27.603l-37.484-13.701c-12.207-4.452-24.386-9.536-36.996-12.753
	c-10.966-3.134-22.61-2.984-33.492,0.431c-9.703,3.591-18.583,9.101-26.109,16.2c-3.332,3.074-6.559,6.243-9.68,9.508
	c-4.108,4.28-8.043,8.732-11.748,13.356c-8.158,9.823-16.2,19.733-24.271,29.614c-5.026,6.146-10.053,12.293-15.022,18.44
	c-16.602,20.308-33.108,40.663-49.519,61.066c-2.208-0.025-4.405-0.305-6.549-0.833c17.12-21.255,34.315-42.462,51.587-63.623
	c1.982-2.47,4.021-4.969,6.032-7.439c8.416-10.312,16.841-20.613,25.276-30.906c6.521-7.956,12.983-15.97,20.049-23.467
	c0.632-0.689,1.264-1.35,1.924-2.04c14.333-14.821,32.228-27.919,53.655-28.264c12.61-0.201,24.789,3.792,36.508,8.014
	c12.609,4.567,25.19,9.22,37.8,13.845l76.003,27.804l19.014,6.951C405.237,195.649,403.801,201.106,400.383,199.842z"/>
<path fill="#3F3D56" d="M2,148.167V69.292c0.009-5.125,4.165-9.276,9.29-9.28H113.5v-2H11.29C5.061,58.017,0.01,63.063,0,69.292
	v78.875H2z"/>
<path fill="#3F3D56" d="M9.095,338.061c-4.171-1.002-7.107-4.738-7.095-9.029v-78.864H0v78.864
	c-0.016,5.213,3.552,9.754,8.621,10.971c0.825,0.203,1.67,0.311,2.52,0.32H113.5v-2H11.152
	C10.459,338.313,9.769,338.225,9.095,338.061z"/>
<path fill="#3F3D56" d="M467,250.167v78.864c-0.006,5.129-4.162,9.285-9.291,9.291H355.5v2h102.209
	c6.232-0.008,11.283-5.059,11.291-11.291v-78.864H467z"/>
<path fill="#3F3D56" d="M464.991,61.061c0.525,0.272,1.021,0.597,1.482,0.968c2.234,1.747,3.535,4.428,3.527,7.264v78.875h2V69.292
	c0.012-3.446-1.57-6.705-4.283-8.829c-0.561-0.451-1.166-0.846-1.805-1.177c-1.605-0.841-3.391-1.278-5.203-1.273H358.5v2h102.209
	C462.202,60.008,463.67,60.368,464.991,61.061z"/>
<path fill="#2F2E41" d="M647.786,349.971l-86.402,4.332l-6,29v25.83l-3.682,96.178l25.682,74.992h20.59l-2.09-9.5l0,0
	c2.336-3.268,2.471-7.619,0.342-11.023l-1.652-2.641l-2.689-11.336l-6-42l25.697-94.67l3.303,172.67h22.369l3.281-3.748
	c3.746-4.277,4.152-10.539,0.992-15.266l0,0v-4.188l-2.643-14.799l24.652-183.709L647.786,349.971z"/>
<path fill="#E6E6E6" d="M610.454,169.946l-28.186,1.444l-3.201,13.358l-20.469,15.664c-9.439,7.224-13.963,19.178-11.67,30.841
	l11.346,57.717l-0.738,36.124l1.637,14.793l-0.123,2.238l-2.506,2.053c-3.512,2.873-4.563,7.799-2.527,11.855l0,0
	c0,0-12.352,26.703,5.52,28.061s28.926-17.225,46-10c17.076,7.225,32.32,8.07,37,0c4.682-8.07,18.922-6.189,20.635-13.24
	s-6.957-15.033-8.123-25.541c-1.164-10.51-4.164-59.51-4.164-59.51l8.391-48.107c2.439-13.992-4.674-27.91-17.445-34.127
	l-26.861-13.078L610.454,169.946z"/>
<path fill="#A0616A" d="M463.668,320.567c2.355-5.086,8.334-7.373,13.484-5.154c0.5,0.225,0.98,0.49,1.436,0.793l28.961-21.565
	l16.113,10.846l-42.867,25.253c-2.893,3.689-7.908,4.965-12.211,3.107c-4.988-2.211-7.24-8.045-5.029-13.033l0,0
	C463.59,320.731,463.629,320.649,463.668,320.567z"/>
<path fill="#E6E6E6" d="M553.653,206.834c0,0-37.543,68.359-52.08,88.465l-11.037,8.62l1,28.175l24.662-13.609
	c0,0,49.766-37.695,48.338-53.391C563.11,249.399,553.653,206.834,553.653,206.834z"/>
<circle fill="#A0616A" cx="593.969" cy="141.057" r="26.632"/>
<path fill="#2F2E41" d="M604.258,165.506c-7.641-0.251-8.336-2.27-15.979-2.52c-2.434-0.08-5.305-0.414-6.48-2.545
	c-0.838-1.518-0.453-3.43,0.285-4.999c0.871-1.498,1.658-3.044,2.354-4.631c1.428-4.233-0.848-8.822-5.082-10.249
	c-0.943-0.318-1.938-0.459-2.932-0.416c-2.326,0.101-4.51,1.194-6.83,1.394c-3.18,0.274-10.213-10.228-8.75-13.064
	c1.426-2.761,4.295-4.845,4.746-7.919c0.295-2.011-0.535-4.009-0.648-6.039c-0.168-3.009,7.459,3.776,6.063,1.105
	c-3.428-6.551,28.863-14.671,34.178-6.466c1.988,3.066,5.529,2.857,8.684,4.699c2.068,1.207,7.293,5.371,8.48,7.967
	c1.09,2.648,1.605,5.499,1.512,8.361c0.047,13.314-1.98,25.562-12.721,33.431"/>
<path fill="#F2F2F2" d="M471.489,618.405c-14.625,1.289-29.051-4.092-39.26-14.646c-6.59-6.947-11.113-15.891-15.486-24.541
	c-1.273-2.518-2.59-5.119-3.928-7.613c-3.055-5.564-2.416-12.428,1.611-17.332c3.859-4.904,10.314-6.967,16.303-5.209l0.639,0.184
	l5.744,22.414c0.855-3.342,2.695-10.875,3.857-18.256l0.098-0.617l0.572,0.254c5.998,2.654,11.637,6.053,16.785,10.115
	c18.461,14.809,29.475,36.986,30.113,60.643l0.016,0.697L471.489,618.405z"/>
<path fill="#CACACA" d="M690.737,625.995l-278.75,0.307c-0.658-0.002-1.188-0.539-1.186-1.195c0.004-0.654,0.533-1.182,1.186-1.186
	l278.75-0.307c0.656-0.004,1.193,0.527,1.197,1.184c0.002,0.658-0.527,1.193-1.186,1.197
	C690.745,625.995,690.741,625.995,690.737,625.995z"/>
<path fill="#E6E6E6" d="M159.453,422.581c-14.45,0-26.164-11.713-26.164-26.164c0-14.449,11.714-26.164,26.164-26.164
	s26.164,11.715,26.164,26.164l0,0C185.616,410.868,173.902,422.581,159.453,422.581z"/>
<path fill="#FFFFFF" d="M169.776,393.836h-7.743v-7.742c-0.003-1.426-1.162-2.578-2.587-2.576c-1.42,0.004-2.571,1.154-2.575,2.576
	v7.742h-7.743c-1.425,0-2.581,1.154-2.581,2.58s1.156,2.582,2.581,2.582h7.743v7.742c0.003,1.426,1.162,2.578,2.587,2.574
	c1.42-0.002,2.571-1.154,2.575-2.574v-7.742h7.743c1.425,0,2.581-1.156,2.581-2.582S171.202,393.836,169.776,393.836
	L169.776,393.836z"/>
<path fill="#E6E6E6" d="M236,422.581c-14.45,0-26.164-11.713-26.164-26.164c0-14.449,11.714-26.164,26.164-26.164
	s26.164,11.715,26.164,26.164l0,0C262.164,410.868,250.45,422.581,236,422.581z"/>
<path fill="#FFFFFF" d="M246.323,393.836h-20.647c-1.425,0-2.581,1.154-2.581,2.58s1.156,2.582,2.581,2.582h20.647
	c1.426,0,2.581-1.156,2.581-2.582S247.749,393.836,246.323,393.836z"/>
<path fill="#E6E6E6" d="M312.547,422.581c-14.45,0-26.164-11.713-26.164-26.164c0-14.449,11.714-26.164,26.164-26.164
	s26.164,11.715,26.164,26.164l0,0C338.711,410.868,326.997,422.581,312.547,422.581z"/>
<path fill="#FFFFFF" d="M327.267,395.174l-7.417-10.826c-0.687-1.002-2.056-1.258-3.058-0.572c-1.002,0.688-1.258,2.057-0.571,3.059
	l4.797,7.002h-18.793c-1.425,0-2.581,1.154-2.581,2.58s1.156,2.582,2.581,2.582l0,0h19.029l-5.033,7.346
	c-0.687,1.002-0.431,2.371,0.571,3.059c1.002,0.686,2.372,0.43,3.058-0.572l7.417-10.826
	C327.758,397.125,327.758,396.053,327.267,395.174z"/>
<circle fill="#3DB8B6" cx="236" cy="27.78" r="27.78"/>
<path fill="#FFFFFF" d="M232.21,42.238c-0.973,0-1.889-0.458-2.472-1.236l-7.579-10.105c-1.026-1.364-0.751-3.301,0.612-4.327
	s3.301-0.751,4.327,0.612c0.002,0.002,0.003,0.004,0.005,0.006l4.958,6.611l12.735-19.102c0.944-1.421,2.863-1.808,4.284-0.864
	c1.421,0.945,1.808,2.863,0.864,4.284c-0.002,0.002-0.004,0.005-0.005,0.008l-15.158,22.737c-0.557,0.834-1.483,1.347-2.485,1.375
	C232.268,42.238,232.239,42.238,232.21,42.238z"/>
</svg>
